<?xml version="1.0" encoding="UTF-8"?>
<svg version="1.1" xmlns="http://www.w3.org/2000/svg" width="4096" height="4096">
<path d="M0 0 C5.10744035 0.00460058 10.21486811 -0.00249576 15.3223058 -0.00795984 C25.27701623 -0.01677223 35.23169622 -0.01496975 45.18640777 -0.00913456 C53.27767227 -0.00459039 61.36892833 -0.00401696 69.46019375 -0.00618219 C71.19717404 -0.00664189 71.19717404 -0.00664189 72.96924484 -0.00711088 C75.32250851 -0.0077504 77.67577218 -0.00839883 80.02903584 -0.00905606 C101.99809605 -0.01473415 123.96713945 -0.00823877 145.9361969 0.00254467 C164.76549518 0.01150052 183.59476882 0.00990655 202.42406666 0.00070715 C224.35194719 -0.01000127 246.27981312 -0.01420873 268.2076959 -0.00806832 C270.54577827 -0.00743128 272.88386065 -0.00680254 275.22194302 -0.00618219 C276.37203617 -0.00587364 277.52212932 -0.00556509 278.70707377 -0.00524719 C286.79348392 -0.00352365 294.87988475 -0.00642751 302.96629345 -0.0111413 C312.81221532 -0.01675548 322.6581053 -0.0152214 332.50402351 -0.00457981 C337.52232876 0.00066614 342.54058087 0.00275166 347.55888569 -0.00387812 C352.15661475 -0.00986053 356.75424167 -0.00652489 361.35196153 0.00407699 C363.01005205 0.00630103 364.6681513 0.00519726 366.32623615 0.00032541 C374.56901875 -0.02202685 382.51289087 0.19744976 390.63755316 1.80617499 C394.23917392 2.48033065 397.79109803 2.55409088 401.44481862 2.63644934 C424.30011226 3.55555088 447.08274674 6.13895228 469.46752369 10.82275915 C480.5293835 13.12846831 491.62969756 15.02969104 502.80028737 16.72629309 C503.50294539 16.83314932 504.20560341 16.94000555 504.9295541 17.05009985 C512.04618378 18.13024317 519.16524333 19.1930307 526.28760445 20.23469687 C543.28389593 22.72677799 560.07411677 25.75840799 576.83783925 29.53607702 C585.34149928 31.44460392 593.80878662 33.30704629 602.43309987 34.57394934 C612.76807258 36.207508 622.83858908 38.8091868 632.96413624 41.41437292 C638.68539084 42.88600106 644.41248071 44.33447532 650.14013112 45.78098059 C651.88759381 46.22266325 651.88759381 46.22266325 653.67035878 46.6732688 C661.32508525 48.59819441 668.99505182 50.44061336 676.68700612 52.21066809 C677.70065739 52.44432074 678.71430867 52.67797338 679.75867665 52.91870642 C684.47619727 54.00303822 689.19608445 55.07520717 693.92016041 56.13058996 C724.22001676 62.98735783 753.74036201 72.54503938 783.15541279 82.44869757 C785.8044805 83.33981406 788.45448732 84.22808321 791.10479176 85.11551428 C819.20255715 94.52521301 847.22736225 104.11740767 875.06981862 114.26144934 C875.85125233 114.54534521 876.63268605 114.82924109 877.43779957 115.12173986 C888.34696601 119.08514103 899.22208844 123.13294274 910.06981862 127.26144934 C911.25616902 127.71233923 911.25616902 127.71233923 912.4664861 128.17233801 C937.28313878 137.61314359 961.78322939 147.63635041 986.06566823 158.37595129 C989.09088906 159.71259107 992.11975975 161.04091378 995.14794362 162.37082434 C1001.80285223 165.30283067 1008.43995302 168.27328976 1015.06981862 171.26144934 C1016.04314137 171.69977087 1016.04314137 171.69977087 1017.03612721 172.14694738 C1037.36824698 181.30728053 1057.526375 190.77607473 1077.5569402 200.57764196 C1082.2057182 202.84912838 1086.87702195 205.06846942 1091.55932057 207.26975012 C1116.20268674 218.88032541 1140.4821327 231.47244269 1164.28417408 244.71848059 C1167.47695886 246.48696435 1170.68119052 248.23406756 1173.88622487 249.98019934 C1189.38637254 258.43851639 1204.66059712 267.20663532 1219.79979908 276.30002356 C1223.04232751 278.2449596 1226.29145771 280.17839847 1229.54247487 282.10910559 C1277.8001273 310.81565234 1324.42414899 342.66970377 1369.85204518 375.65256262 C1373.58671176 378.3618815 1377.328706 381.06104255 1381.06981862 383.76144934 C1382.57113363 384.84606686 1384.07243572 385.93070226 1385.57372487 387.01535559 C1388.5589097 389.17150232 1391.5460325 391.32492438 1394.53466237 393.47629309 C1418.11088573 410.45622026 1441.23921667 427.72789988 1463.25829518 446.70432043 C1465.06344258 448.25596869 1466.87420421 449.80078518 1468.68700612 451.34348059 C1475.10231541 456.80762966 1481.42116716 462.34691876 1487.63622487 468.03879309 C1493.7804628 473.65046465 1500.12293343 479.03639826 1506.45067799 484.43893957 C1509.55688177 487.09386006 1512.64812872 489.76299625 1515.71044362 492.46848059 C1522.23352028 498.2156847 1528.85317501 503.68233873 1535.81981862 508.88644934 C1542.79149511 514.10968365 1549.43164675 519.57601444 1555.06981862 526.26144934 C1555.06981862 526.92144934 1555.06981862 527.58144934 1555.06981862 528.26144934 C1555.6099358 528.48574621 1556.15005299 528.71004309 1556.70653737 528.94113684 C1559.81755131 530.67919091 1562.2916691 532.97242574 1564.88231862 535.38644934 C1565.68560597 536.12677404 1565.68560597 536.12677404 1566.50512135 536.88205481 C1569.40081264 539.58516793 1572.09769238 542.33505465 1574.63231862 545.38644934 C1577.97824146 549.37394476 1581.84247245 552.49395486 1585.93309987 555.69504309 C1594.10175713 562.24578726 1601.56953527 569.59790183 1608.94896901 577.01022863 C1610.39501609 578.46169439 1611.84641462 579.90765728 1613.29833424 581.35324621 C1621.05447261 589.12011972 1621.05447261 589.12011972 1623.73778737 592.49973059 C1626.21446893 595.43275214 1628.88384471 597.77073236 1631.79491627 600.25754309 C1636.3032371 604.22881346 1640.50905212 608.51618515 1644.75731862 612.76144934 C1645.6809319 613.67281652 1646.60454518 614.58418371 1647.55614674 615.52316809 C1652.25023758 620.2071205 1656.33373728 624.79401324 1660.06981862 630.26144934 C1661.85262102 632.08447434 1661.85262102 632.08447434 1663.69481862 633.51144934 C1671.78369012 640.33595863 1678.847766 647.84074172 1685.42528737 656.11301184 C1688.76348433 660.18724182 1692.43714206 663.95154866 1696.06981862 667.76144934 C1713.06981862 685.63091348 1713.06981862 685.63091348 1713.06981862 689.26144934 C1713.63313893 689.50121496 1714.19645924 689.74098059 1714.77684987 689.98801184 C1722.67295599 694.37324284 1728.3813097 702.75939814 1733.58934987 709.92160559 C1736.45144715 713.82876442 1739.50620798 717.57400176 1742.56981862 721.32394934 C1743.13233326 722.01255041 1743.69484791 722.70115149 1744.27440846 723.41061926 C1745.37352253 724.75382064 1746.47343192 726.0963717 1747.57421315 727.43820715 C1748.85511074 728.9997062 1750.13271946 730.56390212 1751.40966237 732.12863684 C1755.26575273 736.85360417 1759.14119784 741.56245429 1763.02147877 746.26755285 C1766.04057481 749.92973356 1769.0556501 753.59521268 1772.06981862 757.26144934 C1772.90633961 758.27779455 1772.90633961 758.27779455 1773.75976002 759.31467199 C1781.5288941 768.76561684 1789.05619748 778.37388202 1796.44481862 788.12473059 C1798.06114159 790.25003988 1799.68842283 792.36644375 1801.31981862 794.48019934 C1806.83747167 801.63698088 1812.24983717 808.84849866 1817.50731862 816.19894934 C1821.87684905 822.30693761 1826.37002906 828.29172611 1831.00731862 834.19894934 C1837.64740113 842.66076973 1844.06091387 851.27226371 1850.39354908 859.96603918 C1851.96590058 862.11914853 1853.54946949 864.26347632 1855.13622487 866.40598059 C1877.70407795 897.04956726 1897.45091645 929.62219887 1916.77245533 962.36935949 C1920.19623503 968.17186309 1923.63377208 973.96620338 1927.06981862 979.76144934 C1928.37064409 981.95673563 1929.67142478 984.15204846 1930.97216237 986.34738684 C1932.33798644 988.65211073 1933.70385405 990.95680872 1935.06981862 993.26144934 C1935.62926167 994.20534521 1935.62926167 994.20534521 1936.2000066 995.16830969 C1939.00963261 999.908369 1941.82062952 1004.64761356 1944.63231862 1009.38644934 C1945.23478413 1010.4021752 1945.23478413 1010.4021752 1945.84942067 1011.43842077 C1950.56363917 1019.38497813 1955.30110545 1027.31636606 1960.07616627 1035.22653723 C1976.4241144 1062.3243185 1991.67641635 1090.07816156 2006.06981862 1118.26144934 C2006.45391896 1119.01291235 2006.8380193 1119.76437536 2007.23375905 1120.53860998 C2019.23777653 1144.04555178 2030.80903016 1167.65742408 2041.29706776 1191.88149023 C2043.40419514 1196.74734441 2045.5486084 1201.59504956 2047.71825612 1206.43332434 C2070.71373764 1257.79162916 2091.20578295 1310.25456998 2110.06981862 1363.26144934 C2110.39401783 1364.17027868 2110.71821705 1365.07910803 2111.05224049 1366.01547766 C2121.07742924 1394.15736942 2129.72282223 1422.49519587 2137.58814442 1451.31043005 C2140.78093823 1462.94984729 2144.272702 1474.49693158 2147.81298268 1486.0346427 C2155.07759928 1509.79056583 2161.34046291 1533.81436299 2167.34447682 1557.91403723 C2168.04152998 1560.71155269 2168.74248731 1563.50804348 2169.44701588 1566.30368567 C2176.90304782 1595.89146526 2176.90304782 1595.89146526 2179.06981862 1609.26144934 C2180.4799514 1617.85503635 2182.05029751 1626.3406079 2184.0909673 1634.81014013 C2187.81827802 1650.3328595 2190.58618053 1665.95564374 2193.19481862 1681.69894934 C2194.02573151 1686.67766868 2194.86199465 1691.65545658 2195.70263112 1696.63254309 C2195.90265736 1697.82251898 2196.10268361 1699.01249487 2196.30877125 1700.23853064 C2197.47022377 1707.05518048 2198.78155892 1713.81244012 2200.28075612 1720.56223059 C2202.0758194 1728.69902845 2202.95685813 1736.6926999 2203.56981862 1745.01144934 C2204.40544992 1755.23359931 2205.59116918 1765.26707376 2207.51244557 1775.34982824 C2209.41781591 1785.5901687 2210.56948397 1795.91675029 2211.76293385 1806.25925207 C2211.84315785 1806.95093985 2211.92338185 1807.64262762 2212.00603688 1808.35527563 C2212.22432367 1810.24637113 2212.43858547 1812.13792999 2212.65258229 1814.02951574 C2212.90732173 1816.00274032 2213.21301197 1817.97129227 2213.60643971 1819.92160559 C2214.05490738 1822.18615466 2214.23893086 1824.2931257 2214.31591237 1826.59738684 C2214.34741383 1827.40587072 2214.3789153 1828.21435461 2214.41137135 1829.04733801 C2214.44303395 1829.90174475 2214.47469655 1830.75615149 2214.50731862 1831.63644934 C2214.76624695 1837.62517645 2215.13873216 1843.5113466 2216.00731862 1849.44894934 C2218.10314913 1864.16633694 2218.97642932 1878.96627484 2219.53466237 1893.81223059 C2219.59407506 1895.36562391 2219.59407506 1895.36562391 2219.654688 1896.95039892 C2219.85214567 1902.17144738 2220.03540699 1907.39243309 2220.19677174 1912.61472082 C2220.58713743 1924.1029341 2221.61652876 1935.26124129 2223.37328541 1946.61935949 C2225.0901184 1957.76561944 2225.21992259 1968.87984218 2225.19481862 1980.13644934 C2225.19337975 1980.85353315 2225.19194088 1981.57061697 2225.19045842 1982.3094306 C2225.16110418 1993.20492721 2224.96616132 2004.0847183 2224.63286793 2014.97479391 C2224.19054034 2029.7360249 2223.98204861 2044.48591157 2224.00731862 2059.25363684 C2224.00874741 2060.11545946 2224.01017621 2060.97728209 2224.0116483 2061.86522055 C2224.02370145 2067.95566007 2224.04585175 2074.04604686 2224.06981862 2080.13644934 C2224.09370579 2086.34149438 2224.11384784 2092.5465156 2224.12575734 2098.75159597 C2224.13213265 2101.18272332 2224.14459983 2103.61376581 2224.1574651 2106.04486609 C2224.18129393 2113.19109818 2224.03510778 2120.16721626 2223.06981862 2127.26144934 C2222.95267318 2129.06346625 2222.85494148 2130.86700517 2222.78856862 2132.67160559 C2222.7511858 2133.59908606 2222.71380299 2134.52656652 2222.67528737 2135.48215246 C2222.60483009 2137.38058459 2222.53451818 2139.27902213 2222.46434987 2141.17746496 C2222.42696705 2142.10365637 2222.38958424 2143.02984777 2222.35106862 2143.98410559 C2222.30562916 2145.21785925 2222.30562916 2145.21785925 2222.25927174 2146.47653723 C2222.11171595 2148.64556938 2221.86480573 2150.80791968 2221.57909596 2152.96310949 C2220.96077661 2157.73857357 2220.795827 2162.50268181 2220.64013112 2167.31223059 C2220.56824356 2169.29491331 2220.49587722 2171.27757873 2220.4230901 2173.26022863 C2220.38610005 2174.29142828 2220.34911 2175.32262793 2220.31099904 2176.38507605 C2219.71403609 2192.77027414 2218.95329394 2209.11484118 2217.50731862 2225.44894934 C2217.44328846 2226.18038153 2217.37925831 2226.91181372 2217.31328785 2227.66541052 C2216.29722871 2239.12712485 2216.29722871 2239.12712485 2215.5402776 2242.90280676 C2215.09475965 2245.13640763 2214.91666484 2247.18411225 2214.85888112 2249.45676184 C2214.55912255 2258.46704328 2213.91978788 2267.19370228 2212.36278737 2276.07419348 C2211.06904934 2283.68939792 2210.26232454 2291.34401478 2209.44185841 2299.02069616 C2208.2771455 2309.8797916 2206.99103758 2320.57212282 2204.69481862 2331.26144934 C2201.45142753 2346.45145694 2200.01378338 2361.90906235 2198.38866627 2377.33957434 C2196.81905165 2391.88169903 2194.29796693 2405.99993024 2191.06981862 2420.26144934 C2190.7346285 2421.77215926 2190.40025094 2423.28304981 2190.06688893 2424.79416418 C2189.44713789 2427.59372921 2188.82203563 2430.3920199 2188.19262135 2433.18942785 C2184.75213764 2448.50322309 2181.52137559 2463.8536667 2178.43309987 2479.24191809 C2178.10813283 2480.85867924 2177.78316128 2482.47543949 2177.45818532 2484.09219885 C2176.15524476 2490.57997452 2174.85299054 2497.06785161 2173.57061207 2503.55972815 C2167.7095474 2533.22704548 2160.90152567 2562.39086713 2151.81981862 2591.26144934 C2150.83844959 2594.41594954 2149.86017367 2597.57139856 2148.88208973 2600.7269187 C2148.22701523 2602.83980282 2147.5709693 2604.95238602 2146.91391957 2607.06465673 C2143.99663229 2616.45375366 2141.18161255 2625.87188851 2138.38292897 2635.29688025 C2134.68276878 2647.75415642 2130.93546539 2660.17564229 2126.65404713 2672.44919348 C2124.94409422 2677.39575683 2123.50295131 2682.34754803 2122.19872487 2687.41769934 C2120.10071856 2695.51969415 2117.35397945 2703.33460554 2114.50731862 2711.19894934 C2113.41971732 2714.22653655 2112.3360651 2717.25552693 2111.25341237 2720.28488684 C2110.98128926 2721.04485464 2110.70916615 2721.80482244 2110.42879689 2722.58781958 C2108.73818926 2727.32748284 2107.11506931 2732.08287893 2105.54247487 2736.86301184 C2098.31424798 2758.75939789 2089.60301051 2779.9841762 2080.77987111 2801.2805686 C2077.17008209 2809.99739503 2073.63104942 2818.74151897 2070.10842335 2827.49384069 C2056.12137603 2862.21033038 2041.1869908 2896.49079279 2025.38915455 2930.42307043 C2024.21653928 2932.94579899 2023.05177123 2935.47193625 2021.89013112 2937.99973059 C2016.98626944 2948.62133776 2011.60198626 2958.95528194 2006.06981862 2969.26144934 C2005.55193776 2970.23130774 2005.0340569 2971.20116613 2004.50048268 2972.20041418 C1993.76413954 2992.29672808 1993.76413954 2992.29672808 1988.50731862 3000.82394934 C1981.28500202 3012.57931607 1975.13373711 3024.99386635 1969.05809987 3037.37082434 C1963.56238736 3048.56250162 1957.79475977 3059.38570483 1951.26513112 3070.00754309 C1947.59031355 3075.99668934 1944.11923528 3082.09918046 1940.63231862 3088.19894934 C1931.94006576 3103.34018561 1923.09377296 3118.39804095 1912.87450612 3132.57004309 C1910.9983526 3135.36802961 1909.51200792 3138.22031102 1908.06981862 3141.26144934 C1907.40981862 3141.26144934 1906.74981862 3141.26144934 1906.06981862 3141.26144934 C1906.06922153 3140.05008287 1906.06862444 3138.8387164 1906.06800926 3137.59064186 C1906.04142744 3084.19311094 1906.00989577 3030.79558486 1905.95318043 2977.39807653 C1905.95232292 2976.58941025 1905.95146541 2975.78074396 1905.95058192 2974.94757263 C1905.93191542 2957.37223357 1905.91236282 2939.79689559 1905.89189766 2922.22155853 C1905.88186666 2913.60236868 1905.87203142 2904.9831786 1905.86229908 2896.3639884 C1905.86132728 2895.50628448 1905.86035547 2894.64858056 1905.85935422 2893.76488561 C1905.8279582 2865.97420376 1905.80948445 2838.18353161 1905.79772615 2810.39283509 C1905.78557261 2781.82953471 1905.76035385 2753.26627485 1905.71874248 2724.70300147 C1905.71286856 2720.66679605 1905.70714369 2716.63059043 1905.70150959 2712.59438467 C1905.69983941 2711.40283326 1905.69983941 2711.40283326 1905.69813548 2710.18721011 C1905.68060929 2697.41034153 1905.67681817 2684.63350418 1905.67818941 2671.85662519 C1905.67927457 2659.00532632 1905.66582766 2646.15410726 1905.63765433 2633.30283867 C1905.62136355 2625.67167268 1905.61610787 2618.04068739 1905.62684687 2610.40951057 C1905.63364617 2604.70393103 1905.61954811 2598.99855278 1905.597482 2593.29301889 C1905.59179996 2590.98996533 1905.5928113 2588.68688313 1905.60130617 2586.38383822 C1905.65917841 2569.21941869 1904.57703147 2555.56760872 1894.06981862 2541.26144934 C1893.32731862 2540.20957434 1892.58481862 2539.15769934 1891.81981862 2538.07394934 C1883.38133413 2529.44368111 1872.64170054 2522.7093613 1860.32917541 2522.13320215 C1859.32562928 2522.13166281 1858.32208315 2522.13012347 1857.28812653 2522.12853748 C1856.12319708 2522.12434432 1854.95826764 2522.12015115 1853.7580373 2522.11583093 C1851.840825 2522.11650739 1851.840825 2522.11650739 1849.88488114 2522.11719751 C1848.50640375 2522.11414291 1847.12792727 2522.11065375 1845.74945197 2522.106769 C1841.94528735 2522.09732177 1838.14113858 2522.09409049 1834.33696383 2522.09184121 C1830.20431057 2522.08831537 1826.07166956 2522.07906106 1821.93902415 2522.07053298 C1814.69046281 2522.05638002 1807.44190342 2522.04595569 1800.19333279 2522.03795195 C1789.41427391 2522.02604638 1778.63522938 2522.00850129 1767.85618029 2521.98987356 C1747.48534678 2521.95489627 1727.11450724 2521.92676215 1706.74366044 2521.90085212 C1691.01304315 2521.88082813 1675.28242878 2521.85922744 1659.55181515 2521.83651304 C1655.02715189 2521.82999828 1650.50248862 2521.82349148 1645.97782534 2521.81698722 C1644.85303864 2521.81536996 1643.72825194 2521.8137527 1642.56938079 2521.81208643 C1610.92015931 2521.76664407 1579.27093544 2521.72340915 1547.62170517 2521.68454218 C1546.42786965 2521.6830749 1545.23403412 2521.68160762 1544.00402176 2521.68009587 C1537.95289618 2521.67266273 1531.90177059 2521.66524521 1525.850645 2521.65783093 C1524.64882875 2521.65635794 1523.44701251 2521.65488494 1522.20877759 2521.65336731 C1519.77840992 2521.65038864 1517.34804224 2521.64741135 1514.91767455 2521.64443543 C1477.10778036 2521.59807933 1439.29790531 2521.54357544 1401.48803151 2521.48288488 C1359.02707084 2521.41473468 1316.56610771 2521.3533858 1274.1051237 2521.30163497 C1269.57825992 2521.29609293 1265.05139617 2521.29052464 1260.52453244 2521.28493834 C1259.40987158 2521.28356684 1258.29521072 2521.28219534 1257.14677226 2521.28078229 C1239.19897868 2521.25854052 1221.25120104 2521.22982409 1203.30342063 2521.19886672 C1185.26736881 2521.16793689 1167.23131919 2521.14453486 1149.19524764 2521.12876359 C1138.47761193 2521.11917918 1127.76001825 2521.1040099 1117.04240314 2521.08082912 C1109.88320253 2521.06590126 1102.72401829 2521.05829631 1095.56480237 2521.05664199 C1091.48569322 2521.05549303 1087.40665602 2521.05118006 1083.32756662 2521.03795902 C1079.61227434 2521.02598216 1075.89709471 2521.023381 1072.18178716 2521.02806746 C1070.22522998 2521.02817291 1068.26867966 2521.01845264 1066.31214902 2521.008261 C1047.94273734 2521.05979668 1033.7796911 2525.36570603 1020.69872487 2538.43332434 C1011.51880047 2548.30890422 1005.94733715 2559.13697087 1005.94283497 2572.75766516 C1005.94001515 2574.07204062 1005.93719532 2575.38641607 1005.93429005 2576.74062109 C1005.93623438 2578.19092335 1005.93828255 2579.64122548 1005.94042408 2581.09152746 C1005.93906836 2582.62467506 1005.93728747 2584.15782233 1005.93511403 2585.69096899 C1005.93055391 2589.85518138 1005.93232506 2594.019369 1005.93549311 2598.18358183 C1005.93803134 2602.56065324 1005.93567442 2606.93772257 1005.93410695 2611.31479406 C1005.93228645 2618.68227024 1005.93468523 2626.0497364 1005.93944752 2633.41721106 C1005.94485761 2641.88350074 1005.94315087 2650.34976623 1005.93762112 2658.8160553 C1005.93304773 2666.11493986 1005.93246087 2673.41381722 1005.93505979 2680.71270275 C1005.93660369 2685.05773675 1005.93686965 2689.40275949 1005.9335233 2693.74779272 C1003.16798652 2736.17448539 1003.16798652 2736.17448539 1017.55809987 2773.98801184 C1028.16959279 2783.83589857 1042.00673569 2790.909619 1056.51454556 2790.76925802 C1057.52222448 2790.77556177 1058.52990339 2790.78186552 1059.56811804 2790.7883603 C1062.93599573 2790.80458969 1066.30315905 2790.79246812 1069.67104542 2790.78043127 C1072.11331287 2790.78630816 1074.55557663 2790.79393605 1076.99783373 2790.80316234 C1082.30307873 2790.8191992 1087.60811771 2790.82289825 1092.91336644 2790.81564665 C1100.80196936 2790.80493121 1108.69042145 2790.81715603 1116.57900769 2790.83401837 C1129.85025016 2790.86173983 1143.12144489 2790.87095083 1156.39271367 2790.86956549 C1169.530487 2790.86825473 1182.66821337 2790.87519988 1195.80597508 2790.89314032 C1196.62323228 2790.8942517 1197.44048949 2790.89536309 1198.28251206 2790.89650816 C1202.43304914 2790.90219535 1206.583586 2790.90802974 1210.7341228 2790.91392079 C1240.12254676 2790.95536849 1269.51095899 2790.9783521 1298.89940846 2790.99045324 C1327.44759908 2791.00225071 1355.99576373 2791.02242658 1384.54393971 2791.05392981 C1385.42411744 2791.05489776 1386.30429516 2791.05586571 1387.21114494 2791.05686299 C1396.05035487 2791.06659291 1404.88956461 2791.076493 1413.72877421 2791.08651775 C1431.73481914 2791.10693496 1449.74086522 2791.12621649 1467.74691212 2791.14481115 C1468.57477769 2791.14566748 1469.40264325 2791.14652381 1470.25559565 2791.14740609 C1525.5269891 2791.20444765 1580.79840314 2791.23493378 1636.06981862 2791.26144934 C1636.18230187 2844.85143953 1636.29357916 2898.44143212 1636.3981725 2952.03143835 C1636.40049419 2953.22071919 1636.40049419 2953.22071919 1636.40286278 2954.43402591 C1636.43649112 2971.66390868 1636.46989455 2988.89379188 1636.50306622 3006.12367553 C1636.51933441 3014.57292053 1636.53565232 3023.02216543 1636.55199635 3031.47141027 C1636.55362195 3032.31222216 1636.55524755 3033.15303404 1636.55692242 3034.01932507 C1636.6096583 3061.28391113 1636.66567831 3088.54848924 1636.72339719 3115.81306517 C1636.78268195 3143.82549822 1636.83866192 3171.83793598 1636.89046971 3199.85038392 C1636.89778482 3203.80482802 1636.90513781 3207.75927204 1636.91251385 3211.71371603 C1636.91396443 3212.49202521 1636.915415 3213.2703344 1636.91690953 3214.0722287 C1636.94037919 3226.61263962 1636.96734385 3239.15304071 1636.99560799 3251.69344163 C1637.02393258 3264.29363311 1637.04859301 3276.89382751 1637.06948978 3289.49403353 C1637.08091901 3296.32398407 1637.09398795 3303.153922 1637.11164868 3309.98385954 C1637.12764516 3316.23119919 1637.13901998 3322.47852923 1637.14664971 3328.72588454 C1637.15024442 3330.99112113 1637.15556529 3333.25635575 1637.16274697 3335.52158381 C1637.17223172 3338.5912639 1637.17553536 3341.6608899 1637.17724907 3344.73058271 C1637.18148043 3345.61806712 1637.18571179 3346.50555152 1637.19007137 3347.41992939 C1637.18570328 3351.82356212 1636.92396754 3355.92211252 1636.06981862 3360.26144934 C1635.9766357 3361.80401946 1635.91698932 3363.34905025 1635.89403737 3364.89426184 C1635.38108181 3386.30818345 1633.34846947 3407.99421177 1626.06981862 3428.26144934 C1625.65240407 3429.45181799 1625.65240407 3429.45181799 1625.2265569 3430.66623449 C1614.62563925 3460.63432349 1599.59663126 3488.88352248 1579.06981862 3513.26144934 C1578.63588795 3513.78416418 1578.20195729 3514.30687902 1577.75487721 3514.84543371 C1567.4876424 3527.20133756 1556.72174797 3538.31819862 1544.06981862 3548.26144934 C1543.02408511 3549.11904388 1541.97987076 3549.97849344 1540.93700612 3550.83957434 C1488.47958778 3593.73746609 1426.94885779 3601.63523989 1361.19632236 3601.51838445 C1357.01077742 3601.51322317 1352.82524622 3601.5198649 1348.63970333 3601.52487111 C1341.33365997 3601.53203416 1334.02764626 3601.53191297 1326.72160161 3601.52677679 C1315.85697241 3601.51915993 1304.99236788 3601.52310594 1294.12773881 3601.52919341 C1274.71686169 3601.53968587 1255.30599778 3601.5388279 1235.89511942 3601.53303558 C1218.91210593 3601.52799294 1201.92909727 3601.52669644 1184.94608319 3601.52908087 C1183.81702385 3601.52923364 1182.68796451 3601.52938641 1181.52469126 3601.52954381 C1176.94088124 3601.53016654 1172.35707122 3601.53080334 1167.7732612 3601.53146334 C1124.83240399 3601.53757234 1081.89155517 3601.53204818 1038.95069925 3601.52126954 C1000.83488363 3601.5117748 962.71908138 3601.51263242 924.60326588 3601.52219152 C881.72746349 3601.53290859 838.8516685 3601.5371435 795.97586495 3601.530967 C791.40285786 3601.53032561 786.82985077 3601.52969992 782.25684369 3601.52908087 C780.56799489 3601.52884364 780.56799489 3601.52884364 778.84502793 3601.52860161 C761.87154571 3601.52633034 744.89806885 3601.52898027 727.92458737 3601.53403997 C708.62308214 3601.53976515 689.32159214 3601.5383144 670.0200888 3601.52747849 C659.22869663 3601.52161941 648.43733746 3601.52120307 637.64594616 3601.52877084 C630.42689331 3601.53327362 623.20786677 3601.53043209 615.9888178 3601.5217613 C611.88332484 3601.51702984 607.77789716 3601.51532209 603.67240638 3601.52257326 C532.88317443 3601.63817115 471.92409946 3579.01207395 421.25731862 3528.69894934 C415.10564583 3522.5037682 409.33228547 3516.23865258 404.06981862 3509.26144934 C403.66666432 3508.74002356 403.26351002 3508.21859777 402.84813893 3507.68137121 C354.6494211 3445.27252877 349.72607702 3379.75507589 349.81678025 3303.51990411 C349.82478353 3296.42930629 349.82072213 3289.33872564 349.81652425 3282.24812634 C349.80901538 3269.0038739 349.81083661 3255.75963809 349.81794941 3242.5153861 C349.82510867 3229.11639285 349.82784229 3215.71740926 349.82530987 3202.31841421 C349.82515201 3201.4683728 349.82499414 3200.61833138 349.82483149 3199.74253113 C349.82400735 3195.40718546 349.82311451 3191.0718398 349.82219912 3186.73649414 C349.81574686 3155.44655522 349.81905878 3124.15662345 349.82779324 3092.86668539 C349.83642576 3061.88581158 349.8413246 3030.90494114 349.84112561 2999.92406607 C349.84111768 2997.975056 349.84110996 2996.02604594 349.84110244 2994.07703588 C349.84106506 2986.24407193 349.84099863 2978.41110798 349.84089663 2970.57814404 C349.84061907 2948.68535085 349.84100755 2926.79255771 349.84188569 2904.89976454 C349.84192536 2903.90301342 349.84196503 2902.9062623 349.8420059 2901.8793066 C349.84331292 2870.14123069 349.84748084 2838.40315585 349.85374367 2806.66508055 C349.85394661 2805.63638128 349.85414955 2804.60768202 349.85435864 2803.54781005 C349.85766703 2786.84430199 349.8611625 2770.14079398 349.86466735 2753.43728596 C349.87856036 2687.17147895 349.88520018 2620.90567577 349.88451588 2554.63986731 C349.88449549 2552.54447676 349.88447528 2550.44908621 349.88445524 2548.35369566 C349.88441506 2544.16783551 349.88437429 2539.98197537 349.88433313 2535.79611522 C349.88424171 2526.41000408 349.88415736 2517.02389295 349.88408655 2507.63778181 C349.88407078 2505.55878404 349.88405434 2503.47978627 349.88403722 2501.4007885 C349.88359173 2445.83612111 349.88806143 2390.27145423 349.89438945 2334.70678723 C349.89449962 2333.73649625 349.89460979 2332.76620528 349.8947233 2331.76651155 C349.89672905 2314.10594598 349.89672905 2314.10594598 349.8977479 2305.42952675 C349.90024146 2284.10909903 349.90218423 2262.78867148 349.90256155 2241.4682436 C349.90257908 2240.5084987 349.90259661 2239.5487538 349.90261467 2238.55992573 C349.90268386 2234.6923029 349.90274912 2230.82468006 349.90281215 2226.95705723 C349.90339864 2191.04770506 349.90717646 2155.13835601 349.91729084 2119.22900514 C349.91824838 2115.78282805 349.91919171 2112.33665095 349.92012417 2108.89047384 C349.92035471 2108.04475547 349.92058524 2107.19903709 349.92082276 2106.32769089 C349.92437992 2092.96352591 349.92462655 2079.59936305 349.92348834 2066.23519774 C349.92244145 2053.07889605 349.92500088 2039.92259907 349.93133847 2026.76629883 C349.93494528 2019.06464966 349.93588762 2011.36301175 349.93276046 2003.66136231 C349.93074166 1997.92530516 349.93399162 1992.18926017 349.93919599 1986.45320547 C349.94048646 1984.16084867 349.94014394 1981.86849014 349.93787938 1979.57613409 C349.92010998 1959.99806383 349.98851228 1940.28208307 352.38231862 1920.82394934 C352.51493092 1919.73670568 352.64754323 1918.64946203 352.78417408 1917.5292716 C358.44188604 1873.44163299 380.18847738 1830.71699932 409.06981862 1797.26144934 C410.07335377 1796.09162512 410.07335377 1796.09162512 411.09716237 1794.89816809 C422.0427941 1782.44419976 433.71188442 1771.08567818 447.06981862 1761.26144934 C447.64055104 1760.83525305 448.21128346 1760.40905676 448.7993108 1759.96994543 C457.54076812 1753.45452758 466.59689789 1747.65232845 476.06981862 1742.26144934 C476.69098561 1741.9022843 477.3121526 1741.54311926 477.95214283 1741.17307043 C523.15354482 1715.2355486 569.43422168 1710.08712071 620.34641336 1710.13298178 C624.43959866 1710.13554535 628.53278029 1710.13224805 632.62596506 1710.12973845 C639.78237138 1710.12614476 646.93877015 1710.12622519 654.09517682 1710.12878561 C664.7376448 1710.13258284 675.38010647 1710.13062669 686.02257442 1710.1275773 C705.03626789 1710.12232177 724.04995799 1710.12276395 743.06365178 1710.12565622 C759.70633085 1710.12817526 776.34900868 1710.12882685 792.99168789 1710.12763357 C794.09714875 1710.12755719 795.20260961 1710.1274808 796.34156929 1710.1274021 C800.82944678 1710.12709074 805.31732428 1710.12677234 809.80520178 1710.12644234 C851.88039469 1710.12338538 893.95558546 1710.12615338 936.03077804 1710.13153923 C973.37330118 1710.13628296 1010.7158209 1710.13586136 1048.05834401 1710.13107824 C1090.05076849 1710.12571747 1132.04319108 1710.12360385 1174.03561586 1710.12669051 C1178.51670074 1710.1270112 1182.99778563 1710.12732404 1187.47887051 1710.12763357 C1189.13380244 1710.12775219 1189.13380244 1710.12775219 1190.82216734 1710.1278732 C1207.44675815 1710.1290083 1224.0713476 1710.12768479 1240.69593823 1710.12515402 C1259.61214391 1710.12228868 1278.5283457 1710.12302245 1297.44455089 1710.12843476 C1308.01731768 1710.13136047 1318.59007604 1710.1315781 1329.1628426 1710.12778859 C1336.24155312 1710.12553236 1343.32025695 1710.12696655 1350.39896648 1710.13129336 C1354.42115002 1710.1336526 1358.44331694 1710.1345269 1362.4654999 1710.13088737 C1376.62664864 1710.11907621 1390.77812554 1710.14799116 1404.93112099 1710.69907331 C1405.89987474 1710.73677092 1406.86862849 1710.77446852 1407.86673842 1710.81330847 C1458.49593021 1713.07037478 1511.07446819 1734.61573499 1549.06981862 1768.26144934 C1549.85614674 1768.93949621 1550.64247487 1769.61754309 1551.45263112 1770.31613684 C1554.03805141 1772.58565369 1556.56091249 1774.90754747 1559.06981862 1777.26144934 C1559.59446705 1777.75209875 1560.11911549 1778.24274817 1560.65966237 1778.74826574 C1600.45162877 1816.27723636 1628.32550905 1872.92191045 1634.20189869 1927.0593009 C1634.33255772 1928.25416672 1634.33255772 1928.25416672 1634.46585631 1929.47317123 C1636.4140685 1947.70659779 1636.66542363 1965.85474503 1636.64439189 1984.17534685 C1636.64378216 1988.70363413 1636.6667231 1993.23181201 1636.68696034 1997.76004553 C1636.72187705 2006.2879825 1636.7382972 2014.81583532 1636.74673551 2023.34383559 C1636.75982491 2035.85755383 1636.79837274 2048.37120161 1636.84083474 2060.88485098 C1636.84397342 2061.81120816 1636.84711211 2062.73756534 1636.85034591 2063.69199395 C1636.85662945 2065.54074411 1636.86297313 2067.38949407 1636.86937851 2069.23824382 C1636.88720928 2074.57993818 1636.89848652 2079.92159203 1636.90367556 2085.26331329 C1636.90755128 2088.59102746 1636.9151833 2091.91872703 1636.92348301 2095.24643278 C1636.92639989 2096.76802546 1636.92768836 2098.28962244 1636.92707074 2099.81121778 C1636.92451324 2107.65932423 1637.0643581 2115.47823234 1637.50446522 2123.31522131 C1637.54158421 2123.99636362 1637.57870319 2124.67750593 1637.616947 2125.37928891 C1638.36860718 2137.50571696 1640.31229079 2150.92597506 1648.85106862 2160.19504309 C1666.82925173 2174.9680993 1697.42028613 2170.55219073 1719.27799952 2170.49716878 C1723.58377706 2170.48824682 1727.88955251 2170.49014847 1732.19533741 2170.49052954 C1739.42190842 2170.48959866 1746.64843696 2170.4809953 1753.8749944 2170.46725988 C1762.16832842 2170.45155267 1770.46161604 2170.44626179 1778.75496387 2170.44699544 C1787.67081398 2170.447677 1796.58664679 2170.440702 1805.50249159 2170.43154883 C1808.03303069 2170.42944221 1810.5635669 2170.42871107 1813.09410679 2170.42830992 C1834.97046393 2170.44463589 1834.97046393 2170.44463589 1856.8359319 2169.82907629 C1858.10615098 2169.77433661 1858.10615098 2169.77433661 1859.40203106 2169.71849108 C1871.9336807 2169.07118984 1885.94699855 2166.63768107 1895.06981862 2157.26144934 C1909.44214031 2138.24576217 1905.24818993 2109.17315995 1905.37314165 2086.58137679 C1905.39541171 2082.71886954 1905.42262348 2078.85639659 1905.44919789 2074.99391699 C1905.49320473 2068.49937027 1905.53400472 2062.00481024 1905.57250416 2055.51022863 C1905.62132142 2047.2766441 1905.67502793 2039.04309967 1905.73047936 2030.80955744 C1905.77891288 2023.61771246 1905.8254462 2016.42585535 1905.87149131 2009.23399472 C1905.88121257 2007.71858061 1905.890988 2006.20316683 1905.90082109 2004.68775344 C1905.96429479 1994.89807913 1906.01911798 1985.10841335 1906.06067717 1975.31862068 C1906.07001385 1973.2175153 1906.08066847 1971.11641943 1906.09149754 1969.01532125 C1906.10903031 1965.51377129 1906.12128635 1962.01223504 1906.12999916 1958.51065242 C1906.13573029 1956.59959505 1906.1458196 1954.68855225 1906.15610802 1952.77751398 C1906.17758252 1939.09956558 1905.64860482 1925.18649152 1903.03856862 1911.73019934 C1902.18487926 1907.26316496 1901.80522363 1902.9258503 1901.59032643 1898.38840246 C1900.66324933 1880.05840828 1896.53406749 1862.30877451 1892.55541432 1844.44669104 C1892.11200272 1842.4512831 1891.67550683 1840.4543416 1891.23974049 1838.45725012 C1874.23285183 1760.91605082 1831.5806676 1686.66797723 1781.06981862 1626.26144934 C1780.57804127 1625.67057531 1780.08626393 1625.07970129 1779.57958424 1624.47092199 C1768.72104482 1611.46314563 1757.08261354 1599.20445407 1745.13231862 1587.19894934 C1744.4469402 1586.50889807 1743.76156178 1585.8188468 1743.05541432 1585.10788488 C1738.55637509 1580.62303305 1733.89116921 1576.39588542 1729.06981862 1572.26144934 C1727.95222924 1571.28795217 1726.83502229 1570.31401574 1725.71825612 1569.33957434 C1700.72475377 1547.68734836 1673.64654369 1528.87312285 1645.06981862 1512.26144934 C1644.34923268 1511.84185949 1643.62864674 1511.42226965 1642.88622487 1510.98996496 C1611.45492609 1492.8160017 1578.27306302 1478.34282182 1544.06981862 1466.26144934 C1542.95220143 1465.86296789 1541.83458424 1465.46448645 1540.68309987 1465.05392981 C1510.34084789 1454.30407845 1479.6426342 1448.40600771 1447.63231862 1445.57394934 C1446.94395924 1445.51301092 1446.25559987 1445.45207251 1445.54638112 1445.38928747 C1425.42116144 1443.63839095 1405.31003837 1443.02350917 1385.11605275 1442.7127738 C1383.80995043 1442.69190799 1382.50384811 1442.67104218 1381.15816693 1442.64954408 C1348.51264945 1442.13321402 1315.86630893 1442.0814258 1283.21737515 1442.04883512 C1274.13917948 1442.03958131 1265.06099441 1442.02479295 1255.98280637 1442.00999813 C1238.21654623 1441.98121966 1220.45028226 1441.95756941 1202.68401171 1441.93629236 C1187.15333386 1441.91768509 1171.62265935 1441.89737977 1156.09198582 1441.87545156 C1155.05398599 1441.87398883 1154.01598615 1441.8725261 1152.94653178 1441.87101904 C1148.73122528 1441.86507868 1144.51591878 1441.85913321 1140.3006123 1441.85317844 C1100.94862924 1441.79762742 1061.59664094 1441.74748181 1022.24464769 1441.69976331 C987.37256157 1441.65744094 952.50048588 1441.60997943 917.62841237 1441.55832434 C878.29413062 1441.50007434 838.95984642 1441.44524817 799.62555265 1441.39572346 C795.42809458 1441.39042868 791.23063651 1441.38512451 787.03317845 1441.37981558 C785.99992647 1441.37851151 784.96667449 1441.37720743 783.90211185 1441.37586384 C768.37003474 1441.35619809 752.83796277 1441.33393191 737.30589116 1441.31034994 C719.65055259 1441.28355512 701.99521349 1441.26049208 684.33986391 1441.24226497 C674.48578043 1441.23198765 664.63171054 1441.21891149 654.77763679 1441.20162667 C648.17178311 1441.19033362 641.56593193 1441.18291833 634.96007012 1441.17847381 C631.21359808 1441.17585049 627.46714734 1441.17173271 623.72068448 1441.1628422 C598.32122693 1441.10449715 572.82369512 1441.24264036 547.50731862 1443.51144934 C546.79244282 1443.57524786 546.07756703 1443.63904638 545.34102833 1443.70477819 C491.45444418 1448.59419942 437.55994142 1465.69299942 388.06981862 1487.26144934 C386.30565602 1488.03005285 386.30565602 1488.03005285 384.50585377 1488.81418371 C349.6375182 1504.17684829 312.2030997 1524.19736649 284.14013112 1550.49973059 C278.54431972 1555.26144934 278.54431972 1555.26144934 275.06981862 1555.26144934 C275.06761878 1553.70376491 275.06761878 1553.70376491 275.06537449 1552.1146121 C275.02872417 1526.80697048 274.96920211 1501.49946064 274.88591588 1476.19192839 C274.84616418 1463.95321839 274.81375201 1451.71457233 274.79882252 1439.47580481 C274.78578598 1428.80426681 274.75877014 1418.13286974 274.71520555 1407.46141112 C274.69263591 1401.81477874 274.67690524 1396.16831988 274.67793477 1390.52163839 C274.67868403 1385.19788202 274.66062648 1379.87450857 274.62865078 1374.55085135 C274.62018935 1372.60555536 274.61837607 1370.66021624 274.62401593 1368.71491003 C274.66450061 1352.59326833 272.91259761 1339.66294476 263.06981862 1326.26144934 C261.95606862 1324.68363684 261.95606862 1324.68363684 260.81981862 1323.07394934 C252.38133413 1314.44368111 241.64170054 1307.7093613 229.32917541 1307.13320215 C228.32562928 1307.13166281 227.32208315 1307.13012347 226.28812653 1307.12853748 C225.12319708 1307.12434432 223.95826764 1307.12015115 222.7580373 1307.11583093 C221.47989577 1307.1162819 220.20175423 1307.11673287 218.88488114 1307.11719751 C217.50640375 1307.11414291 216.12792727 1307.11065375 214.74945197 1307.106769 C210.94528735 1307.09732177 207.14113858 1307.09409049 203.33696383 1307.09184121 C199.20431057 1307.08831537 195.07166956 1307.07906106 190.93902415 1307.07053298 C183.69046281 1307.05638002 176.44190342 1307.04595569 169.19333279 1307.03795195 C158.41427391 1307.02604638 147.63522938 1307.00850129 136.85618029 1306.98987356 C116.48534678 1306.95489627 96.11450724 1306.92676215 75.74366044 1306.90085212 C60.01304315 1306.88082813 44.28242878 1306.85922744 28.55181515 1306.83651304 C24.02715189 1306.82999828 19.50248862 1306.82349148 14.97782534 1306.81698722 C13.85303864 1306.81536996 12.72825194 1306.8137527 11.56938079 1306.81208643 C-20.07984069 1306.76664407 -51.72906456 1306.72340915 -83.37829483 1306.68454218 C-84.57213035 1306.6830749 -85.76596588 1306.68160762 -86.99597824 1306.68009587 C-93.04710382 1306.67266273 -99.09822941 1306.66524521 -105.149355 1306.65783093 C-106.35117125 1306.65635794 -107.55298749 1306.65488494 -108.79122241 1306.65336731 C-111.22159008 1306.65038864 -113.65195776 1306.64741135 -116.08232545 1306.64443543 C-153.89221964 1306.59807933 -191.70209469 1306.54357544 -229.51196849 1306.48288488 C-271.97292916 1306.41473468 -314.43389229 1306.3533858 -356.8948763 1306.30163497 C-361.42174008 1306.29609293 -365.94860383 1306.29052464 -370.47546756 1306.28493834 C-371.59012842 1306.28356684 -372.70478928 1306.28219534 -373.85322774 1306.28078229 C-391.80102132 1306.25854052 -409.74879896 1306.22982409 -427.69657937 1306.19886672 C-445.73263119 1306.16793689 -463.76868081 1306.14453486 -481.80475236 1306.12876359 C-492.52238807 1306.11917918 -503.23998175 1306.1040099 -513.95759686 1306.08082912 C-521.11679747 1306.06590126 -528.27598171 1306.05829631 -535.43519763 1306.05664199 C-539.51430678 1306.05549303 -543.59334398 1306.05118006 -547.67243338 1306.03795902 C-551.38772566 1306.02598216 -555.10290529 1306.023381 -558.81821284 1306.02806746 C-560.77477002 1306.02817291 -562.73132034 1306.01845264 -564.68785098 1306.008261 C-583.05726266 1306.05979668 -597.2203089 1310.36570603 -610.30127513 1323.43332434 C-619.48119953 1333.30890422 -625.05266285 1344.13697087 -625.05716503 1357.75766516 C-625.05998485 1359.07204062 -625.06280468 1360.38641607 -625.06570995 1361.74062109 C-625.06376562 1363.19092335 -625.06171745 1364.64122548 -625.05957592 1366.09152746 C-625.06093164 1367.62467506 -625.06271253 1369.15782233 -625.06488597 1370.69096899 C-625.06944609 1374.85518138 -625.06767494 1379.019369 -625.06450689 1383.18358183 C-625.06196866 1387.56065324 -625.06432558 1391.93772257 -625.06589305 1396.31479406 C-625.06771355 1403.68227024 -625.06531477 1411.0497364 -625.06055248 1418.41721106 C-625.05514239 1426.88350074 -625.05684913 1435.34976623 -625.06237888 1443.8160553 C-625.06695227 1451.11493986 -625.06753913 1458.41381722 -625.06494021 1465.71270275 C-625.06339631 1470.05773675 -625.06313035 1474.40275949 -625.0664767 1478.74779272 C-627.83201348 1521.17448539 -627.83201348 1521.17448539 -613.44190013 1558.98801184 C-602.83040721 1568.83589857 -588.99326431 1575.909619 -574.48545444 1575.76925802 C-573.47777552 1575.77556177 -572.47009661 1575.78186552 -571.43188196 1575.7883603 C-568.06400427 1575.80458969 -564.69684095 1575.79246812 -561.32895458 1575.78043127 C-558.88668713 1575.78630816 -556.44442337 1575.79393605 -554.00216627 1575.80316234 C-548.69692127 1575.8191992 -543.39188229 1575.82289825 -538.08663356 1575.81564665 C-530.19803064 1575.80493121 -522.30957855 1575.81715603 -514.42099231 1575.83401837 C-501.14974984 1575.86173983 -487.87855511 1575.87095083 -474.60728633 1575.86956549 C-461.469513 1575.86825473 -448.33178663 1575.87519988 -435.19402492 1575.89314032 C-434.37676772 1575.8942517 -433.55951051 1575.89536309 -432.71748794 1575.89650816 C-428.56695086 1575.90219535 -424.416414 1575.90802974 -420.2658772 1575.91392079 C-390.87745324 1575.95536849 -361.48904101 1575.9783521 -332.10059154 1575.99045324 C-303.55240092 1576.00225071 -275.00423627 1576.02242658 -246.45606029 1576.05392981 C-245.57588256 1576.05489776 -244.69570484 1576.05586571 -243.78885506 1576.05686299 C-234.94964513 1576.06659291 -226.11043539 1576.076493 -217.27122579 1576.08651775 C-199.26518086 1576.10693496 -181.25913478 1576.12621649 -163.25308788 1576.14481115 C-162.42522231 1576.14566748 -161.59735675 1576.14652381 -160.74440435 1576.14740609 C-105.4730109 1576.20444765 -50.20159686 1576.23493378 5.06981862 1576.26144934 C5.18230187 1629.85143953 5.29357916 1683.44143212 5.3981725 1737.03143835 C5.39972029 1737.82429224 5.40126809 1738.61714614 5.40286278 1739.43402591 C5.43649112 1756.66390868 5.46989455 1773.89379188 5.50306622 1791.12367553 C5.51933441 1799.57292053 5.53565232 1808.02216543 5.55199635 1816.47141027 C5.55362195 1817.31222216 5.55524755 1818.15303404 5.55692242 1819.01932507 C5.6096583 1846.28391113 5.66567831 1873.54848924 5.72339719 1900.81306517 C5.78268195 1928.82549822 5.83866192 1956.83793598 5.89046971 1984.85038392 C5.89778482 1988.80482802 5.90513781 1992.75927204 5.91251385 1996.71371603 C5.91396443 1997.49202521 5.915415 1998.2703344 5.91690953 1999.0722287 C5.94037919 2011.61263962 5.96734385 2024.15304071 5.99560799 2036.69344163 C6.02393258 2049.29363311 6.04859301 2061.89382751 6.06948978 2074.49403353 C6.08091901 2081.32398407 6.09398795 2088.153922 6.11164868 2094.98385954 C6.12764516 2101.23119919 6.13901998 2107.47852923 6.14664971 2113.72588454 C6.15024442 2115.99112113 6.15556529 2118.25635575 6.16274697 2120.52158381 C6.17223172 2123.5912639 6.17553536 2126.6608899 6.17724907 2129.73058271 C6.18359611 2131.06180932 6.18359611 2131.06180932 6.19007137 2132.41992939 C6.18570293 2136.82391101 5.92183268 2140.92154072 5.06981862 2145.26144934 C4.97583006 2146.888697 4.91678943 2148.51836714 4.89403737 2150.14816809 C4.40924829 2171.55160583 2.28279705 2192.99065316 -4.93018138 2213.26144934 C-5.20314037 2214.04584387 -5.47609935 2214.8302384 -5.75732982 2215.63840246 C-21.7167821 2261.030259 -48.84639798 2303.33110466 -86.93018138 2333.26144934 C-87.97591489 2334.11904388 -89.02012924 2334.97849344 -90.06299388 2335.83957434 C-142.52041222 2378.73746609 -204.05114221 2386.63523989 -269.80367764 2386.51838445 C-273.98922258 2386.51322317 -278.17475378 2386.5198649 -282.36029667 2386.52487111 C-289.66634003 2386.53203416 -296.97235374 2386.53191297 -304.27839839 2386.52677679 C-315.14302759 2386.51915993 -326.00763212 2386.52310594 -336.87226119 2386.52919341 C-356.28313831 2386.53968587 -375.69400222 2386.5388279 -395.10488058 2386.53303558 C-412.08789407 2386.52799294 -429.07090273 2386.52669644 -446.05391681 2386.52908087 C-447.74750582 2386.52931002 -447.74750582 2386.52931002 -449.47530874 2386.52954381 C-454.05911876 2386.53016654 -458.64292878 2386.53080334 -463.2267388 2386.53146334 C-506.16759601 2386.53757234 -549.10844483 2386.53204818 -592.04930075 2386.52126954 C-630.16511637 2386.5117748 -668.28091862 2386.51263242 -706.39673412 2386.52219152 C-749.27253651 2386.53290859 -792.1483315 2386.5371435 -835.02413505 2386.530967 C-839.59714214 2386.53032561 -844.17014923 2386.52969992 -848.74315631 2386.52908087 C-850.43200511 2386.52884364 -850.43200511 2386.52884364 -852.15497207 2386.52860161 C-869.12845429 2386.52633034 -886.10193115 2386.52898027 -903.07541263 2386.53403997 C-922.37691786 2386.53976515 -941.67840786 2386.5383144 -960.9799112 2386.52747849 C-971.77130337 2386.52161941 -982.56266254 2386.52120307 -993.35405384 2386.52877084 C-1000.57310669 2386.53327362 -1007.79213323 2386.53043209 -1015.0111822 2386.5217613 C-1019.11667516 2386.51702984 -1023.22210284 2386.51532209 -1027.32759362 2386.52257326 C-1092.63156719 2386.6292138 -1152.71693331 2368.08463896 -1200.93018138 2322.26144934 C-1202.34029586 2321.0247714 -1203.75651739 2319.7950046 -1205.18018138 2318.57394934 C-1211.63303757 2312.94905637 -1217.43389038 2306.81751668 -1222.93018138 2300.26144934 C-1223.35960033 2299.75114172 -1223.78901927 2299.2408341 -1224.23145092 2298.71506262 C-1267.27124611 2247.24768815 -1279.67030905 2187.50388445 -1281.51183116 2121.80228186 C-1281.53382841 2121.01866747 -1281.55582565 2120.23505308 -1281.57848947 2119.4276928 C-1282.10315622 2099.86074114 -1281.84529542 2080.30737552 -1281.58366942 2060.73809052 C-1281.43000422 2049.16163827 -1281.31165923 2037.58478071 -1281.1946162 2026.0079093 C-1281.18224869 2024.79427231 -1281.16988119 2023.58063531 -1281.15713891 2022.33022144 C-1280.87207997 1993.90803493 -1280.8206668 1965.48664108 -1280.81665599 1937.06320715 C-1280.81639872 1935.78704121 -1280.81614144 1934.51087528 -1280.81587636 1933.19603765 C-1280.81308303 1917.70171679 -1280.81745095 1902.20740486 -1280.82553041 1886.71308653 C-1280.83123225 1875.75398755 -1280.83433632 1864.79489057 -1280.83536708 1853.83579016 C-1280.83547477 1852.70845019 -1280.83547477 1852.70845019 -1280.83558462 1851.55833568 C-1280.83593976 1847.72234666 -1280.83625669 1843.88635763 -1280.83655849 1840.05036861 C-1280.83870881 1813.4921527 -1280.84507291 1786.93393946 -1280.85416284 1760.37572508 C-1280.86370847 1732.48489074 -1280.87073811 1704.59405758 -1280.87424266 1676.7032218 C-1280.87434982 1675.85489383 -1280.87445697 1675.00656587 -1280.87456738 1674.132531 C-1280.875759 1664.64886369 -1280.87687075 1655.16519637 -1280.87794995 1645.68152905 C-1280.87994665 1628.1607041 -1280.88227922 1610.63987921 -1280.88469493 1593.11905432 C-1280.88481521 1592.24329281 -1280.8849355 1591.3675313 -1280.88505942 1590.46523156 C-1280.89076923 1549.0139839 -1280.89954196 1507.56273702 -1280.90904539 1466.11149008 C-1280.90967374 1463.37008463 -1280.91030057 1460.62867918 -1280.91092704 1457.88727373 C-1280.91680308 1432.18756908 -1280.92282392 1406.48786446 -1280.92887938 1380.78815985 C-1280.93604373 1350.38025569 -1280.94315061 1319.97235152 -1280.95006238 1289.56444731 C-1280.95068901 1286.80912435 -1280.95131719 1284.05380138 -1280.95194553 1281.29847842 C-1280.96141008 1239.74868036 -1280.96995552 1198.19888238 -1280.97566783 1156.64908361 C-1280.97578849 1155.77486396 -1280.97590914 1154.90064431 -1280.97603345 1153.99993315 C-1280.97844019 1136.53118961 -1280.98071474 1119.06244606 -1280.98270861 1101.59370246 C-1280.9837878 1092.14762427 -1280.98492347 1082.70154608 -1280.9861201 1073.25546789 C-1280.98622657 1072.41068829 -1280.98633304 1071.56590869 -1280.98644273 1070.6955297 C-1280.98999936 1042.76444314 -1280.9975528 1014.83335919 -1281.00705221 986.90227407 C-1281.01602158 960.47316948 -1281.02188228 934.04406588 -1281.02398659 907.61495981 C-1281.02428956 903.83578672 -1281.02463069 900.05661363 -1281.02499568 896.27744055 C-1281.02506613 895.5367921 -1281.02513658 894.79614365 -1281.02520916 894.03305131 C-1281.02641218 882.38649937 -1281.03098496 870.73995137 -1281.03703104 859.09340105 C-1281.04293079 847.59666314 -1281.04507778 836.09993065 -1281.04368903 824.603191 C-1281.04305415 818.47467001 -1281.04392049 812.34616068 -1281.04938579 806.21764183 C-1281.06828003 783.90893287 -1281.01735911 761.61088649 -1280.4738673 739.30777502 C-1280.45362119 738.46218323 -1280.43337509 737.61659144 -1280.41251547 736.74537566 C-1280.11118913 724.53405418 -1279.72179628 712.36015049 -1277.93018138 700.26144934 C-1277.76292552 699.10201818 -1277.76292552 699.10201818 -1277.59229076 697.91916418 C-1272.62525739 665.33462841 -1258.23084537 633.5168657 -1239.93018138 606.26144934 C-1239.51316967 605.63786535 -1239.09615795 605.01428137 -1238.66650951 604.3718009 C-1232.67162398 595.50105375 -1225.98981648 587.30025529 -1218.93018138 579.26144934 C-1218.17994701 578.39906652 -1217.42971263 577.53668371 -1216.65674388 576.64816809 C-1207.49704167 566.2815015 -1197.84433254 556.77870818 -1186.93018138 548.26144934 C-1185.43744701 547.06068762 -1185.43744701 547.06068762 -1183.91455638 545.83566809 C-1175.67816537 539.2701501 -1167.003086 533.60175875 -1157.93018138 528.26144934 C-1157.33544017 527.90840734 -1156.74069896 527.55536535 -1156.12793529 527.19162512 C-1132.23579714 513.19143533 -1104.64905787 505.60734053 -1077.86768138 499.32394934 C-1076.61334301 499.02923742 -1075.35900463 498.73452551 -1074.06665599 498.43088293 C-1062.89362403 495.8868509 -1052.40870203 495.11468508 -1040.97422493 495.13281488 C-1039.56060898 495.13146678 -1038.1469934 495.12968207 -1036.7333785 495.12750265 C-1032.85020955 495.12278391 -1028.96706411 495.12427068 -1025.08389402 495.12678042 C-1020.85847824 495.12841568 -1016.63306745 495.12427082 -1012.40765327 495.12087125 C-1005.00205536 495.11571924 -997.59646398 495.1142997 -990.19086444 495.11532736 C-979.17772825 495.11685188 -968.16459929 495.11269132 -957.15146451 495.10745273 C-936.33436677 495.09777755 -915.51727149 495.09496839 -894.70017176 495.09439567 C-878.61887777 495.09393614 -862.53758475 495.09187786 -846.45629108 495.08869505 C-841.82726707 495.08779749 -837.19824306 495.08690768 -832.56921905 495.08602017 C-831.41840697 495.08579912 -830.26759489 495.08557808 -829.08190971 495.08535033 C-796.70535987 495.07919499 -764.32881036 495.07524986 -731.9522599 495.07569361 C-730.73133385 495.07570919 -729.5104078 495.07572476 -728.252484 495.07574082 C-722.06436628 495.07582392 -715.87624856 495.07592296 -709.68813085 495.07602552 C-707.84467388 495.07605544 -707.84467388 495.07605544 -705.96397537 495.07608596 C-703.47869178 495.0761264 -700.99340818 495.0761682 -698.50812459 495.07621135 C-659.86503364 495.07682373 -621.22195147 495.06932494 -582.57886302 495.05563879 C-539.15674978 495.04026639 -495.7346423 495.03167332 -452.31252617 495.03260201 C-447.67878683 495.03267664 -443.0450475 495.03272535 -438.41130817 495.03275633 C-437.27037938 495.03276798 -436.12945059 495.03277964 -434.95394819 495.03279164 C-416.61822086 495.03282238 -398.28250118 495.02644482 -379.94677612 495.01782406 C-361.5032401 495.00933228 -343.05971522 495.0083695 -324.61617833 495.01493338 C-313.6699881 495.01861933 -302.72383179 495.01682538 -291.77764519 495.00699104 C-284.45090803 495.0009669 -277.12419529 495.00231342 -269.79745922 495.00946154 C-265.63258577 495.0133227 -261.46777766 495.01417822 -257.30290895 495.00600419 C-212.43545245 494.92368822 -212.43545245 494.92368822 -191.36768138 499.38644934 C-190.34795238 499.59745275 -189.32822338 499.80845617 -188.27759349 500.02585363 C-157.13879905 506.83439004 -125.71655924 521.63795422 -99.93018138 540.26144934 C-98.40264232 541.35006262 -98.40264232 541.35006262 -96.84424388 542.46066809 C-58.45496777 570.52212057 -30.2489199 608.54584179 -11.49268138 652.07394934 C-11.19941967 652.73991125 -10.90615795 653.40587317 -10.60400951 654.09201574 C3.72604096 688.58696069 6.31529638 728.06874918 6.01703608 764.91664004 C5.98677335 769.8345001 6.00528884 774.75222272 6.01809132 779.67012548 C6.03562785 788.92399276 6.0152504 798.17730682 5.97826982 807.43110126 C5.92543518 821.01062553 5.92453452 834.59018552 5.93230832 848.16979647 C5.93287759 849.17623266 5.93344687 850.18266886 5.93403339 851.21960312 C5.93521671 853.22835106 5.93652826 855.23709892 5.93797135 857.24584669 C5.94073696 863.04071434 5.92955787 868.83533707 5.9064796 874.63015717 C3.72637551 910.92262098 3.72637551 910.92262098 16.13231862 943.48019934 C25.83361458 952.39913272 39.78818515 954.18302865 52.4281255 954.82658911 C53.21029018 954.86784361 53.99245485 954.90909812 54.79832149 954.95160276 C63.1031892 955.35881642 71.39878574 955.40975015 79.71190846 955.40671301 C81.38965375 955.40971607 83.06739836 955.41312117 84.7451421 955.41689062 C89.24061009 955.42561003 93.73605897 955.42806332 98.2315346 955.42870641 C101.04957566 955.42942287 103.86761202 955.43156813 106.6856519 955.43420362 C116.54206342 955.44341116 126.39846153 955.44754357 136.25487721 955.44675207 C145.40611834 955.44614982 154.55730081 955.45674238 163.70852709 955.47249573 C171.60540566 955.48560004 179.50226508 955.49093488 187.39915442 955.49029666 C192.0986354 955.49004289 196.7980639 955.49282813 201.49753392 955.50347471 C205.9119751 955.51320677 210.32631407 955.51320014 214.74075902 955.50595808 C216.35151774 955.50491916 217.96228302 955.50723351 219.57303059 955.51331854 C234.14143428 955.56475546 249.26463168 955.4501726 260.51513112 944.92551184 C274.75624454 929.68251103 274.38653409 905.06190511 274.30028737 885.49191809 C274.29951221 883.67506441 274.29952856 881.85821025 274.30027211 880.04135656 C274.29933216 875.18407221 274.28517142 870.32691588 274.26745808 865.46966696 C274.25726162 862.43196875 274.25056518 859.39428273 274.24505055 856.35657263 C275.69369525 737.56936456 275.69369525 737.56936456 259.19481862 620.32394934 C258.98679615 619.43924963 258.77877369 618.55454992 258.56444752 617.64304113 C253.72502564 598.11189134 247.05847767 579.32602588 239.63671315 560.64426184 C238.19247949 557.00555598 236.76501098 553.36059144 235.33934987 549.71457434 C228.08255013 531.25802039 220.47652551 513.41665526 209.94481862 496.57394934 C209.21170645 495.38627427 208.47938407 494.19811139 207.74779713 493.00949621 C205.89492444 490.00481732 204.03012598 487.00775721 202.16131032 484.01297522 C201.09141583 482.29610657 200.02537184 480.57691902 198.9609319 478.85666418 C188.78602816 462.38370743 188.78602816 462.38370743 178.06981862 446.26144934 C177.57159596 445.53538488 177.0733733 444.80932043 176.56005299 444.06125402 C169.07797945 433.17470758 161.45780888 422.47090234 153.06981862 412.26144934 C152.6204192 411.71440344 152.17101979 411.16735754 151.70800221 410.60373449 C141.85793835 398.67813395 131.38150271 387.3975113 120.42553151 376.48679113 C118.86892473 374.93560207 117.3178169 373.37905541 115.76708424 371.82199621 C110.37495766 366.42558766 104.91228817 361.17350581 99.06981862 356.26144934 C98.44228688 355.7272135 97.81475514 355.19297766 97.16820729 354.64255285 C72.03011259 333.35131468 44.63070175 314.65887153 16.06981862 298.26144934 C14.96863698 297.62916418 14.96863698 297.62916418 13.84520924 296.98410559 C8.62489913 294.00504862 3.35776383 291.11836659 -1.93018138 288.26144934 C-2.75195873 287.81366125 -3.57373607 287.36587317 -4.42041576 286.90451574 C-33.91054013 270.89638597 -65.23435656 255.9779597 -97.74268138 247.40598059 C-98.3804117 247.2370064 -99.01814201 247.06803221 -99.67519748 246.89393759 C-114.24425837 243.04708526 -128.92850508 239.80318505 -143.69291484 236.80321264 C-145.77988508 236.37888499 -147.86610696 235.95099569 -149.95233715 235.52304602 C-169.30786554 231.57020615 -188.40598259 228.26424443 -208.23535717 228.35226965 C-210.93018138 228.26144934 -210.93018138 228.26144934 -213.50150031 227.76311439 C-217.85495064 227.12614237 -222.0905257 227.12819518 -226.48390281 227.14398813 C-227.44385822 227.14343348 -228.40381363 227.14287883 -229.39285859 227.14230737 C-232.62229475 227.14166355 -235.85167687 227.14819327 -239.08110607 227.15465307 C-241.41465838 227.15564884 -243.74821092 227.15619874 -246.08176345 227.15634006 C-251.83050363 227.15781566 -257.57922593 227.1639351 -263.32796039 227.17196056 C-270.21348114 227.18129799 -277.09900157 227.18477565 -283.98452747 227.18795101 C-296.69254316 227.19393498 -309.40055162 227.20429441 -322.10856235 227.2168498 C-340.25753316 227.23467604 -358.40650304 227.24408216 -376.55548062 227.25174045 C-383.83649522 227.25484989 -391.11750969 227.25823187 -398.39852417 227.26161623 C-399.61187909 227.26217839 -399.61187909 227.26217839 -400.84974624 227.2627519 C-420.10385416 227.27172431 -439.35796022 227.2833858 -458.61206615 227.29587317 C-459.45456268 227.29641757 -460.2970592 227.29696197 -461.16508593 227.29752288 C-480.83051946 227.31025302 -500.49595158 227.32426757 -520.16138256 227.34048986 C-521.43085382 227.34153565 -521.43085382 227.34153565 -522.72597096 227.34260255 C-526.99365568 227.34612028 -531.2613404 227.34964709 -535.52902512 227.35317444 C-536.37249919 227.35387122 -537.21597326 227.354568 -538.08500715 227.3552859 C-539.78748811 227.35669266 -541.48996907 227.35810093 -543.19245003 227.3595107 C-571.29525978 227.38273988 -599.39806716 227.39920638 -627.50088519 227.40818731 C-631.46603913 227.40946397 -635.43119304 227.41083273 -639.39634693 227.4122653 C-640.17674568 227.41254665 -640.95714443 227.41282799 -641.76119162 227.41311787 C-654.34092032 227.41788195 -666.9206316 227.43005432 -679.5003517 227.4451522 C-692.13113155 227.46019659 -704.76189952 227.46822711 -717.39268848 227.46893889 C-724.24054463 227.46953654 -731.08836176 227.47343534 -737.9362067 227.48640203 C-744.19612447 227.49795247 -750.45597551 227.50042522 -756.71590135 227.49545985 C-758.98897952 227.49530766 -761.26206086 227.49859452 -763.53512844 227.50553692 C-766.60816428 227.51444288 -769.68094726 227.51120938 -772.75398338 227.50475168 C-773.65084243 227.51029156 -774.54770148 227.51583143 -775.47173807 227.52153918 C-781.58775059 227.48973653 -781.58775059 227.48973653 -784.93018138 225.26144934 C-781.29519799 222.53521179 -777.78874747 220.73507609 -773.55518138 219.07394934 C-768.69930772 217.12543888 -764.21636617 214.78947563 -759.70752513 212.15598059 C-750.65983958 206.97635336 -741.3078701 202.54646865 -731.86768138 198.13644934 C-728.30789998 196.46318708 -724.74993481 194.78607821 -721.19190013 193.10910559 C-720.31212505 192.69515036 -719.43234996 192.28119513 -718.52591503 191.8546958 C-713.23158269 189.36016826 -707.95527943 186.83271052 -702.69971263 184.25754309 C-701.75123958 183.79280836 -701.75123958 183.79280836 -700.78360546 183.31868505 C-700.16069622 183.01338369 -699.53778697 182.70808233 -698.8960017 182.39352942 C-667.12651944 166.82289922 -634.51105791 153.03059613 -601.93018138 139.26144934 C-600.8084251 138.78614782 -600.8084251 138.78614782 -599.66400707 138.30124426 C-582.96911021 131.23046441 -566.21375838 124.86038654 -548.96484935 119.26999426 C-540.50577848 116.5185416 -532.23549955 113.49261917 -523.99268138 110.13644934 C-459.41677297 84.1313897 -391.18181283 67.46162106 -324.13024032 49.22397375 C-319.11339918 47.85872078 -314.09982174 46.48234199 -309.08838451 45.09738684 C-296.6476119 41.67384734 -284.22898945 38.67890247 -271.55518138 36.26144934 C-269.85042163 35.9284965 -268.14583577 35.59465224 -266.44141185 35.25998449 C-261.27335429 34.24812178 -256.10224554 33.25260363 -250.93018138 32.26144934 C-250.11565502 32.10527136 -249.30112865 31.94909338 -248.46191967 31.78818274 C-246.85457059 31.47999158 -245.24721492 31.17183481 -243.6398524 30.86371374 C-240.53582581 30.26830469 -237.43205946 29.6715524 -234.3284663 29.0738883 C-232.8136432 28.78239706 -231.2986894 28.4915842 -229.78360546 28.20145178 C-220.37608945 26.39697007 -211.05387233 24.39428048 -201.74268138 22.13644934 C-176.71777582 16.18804971 -151.1556709 13.66497281 -125.63144481 10.88123083 C-107.79714894 8.92914079 -90.19138676 6.58599951 -72.64894313 2.76449704 C-49.15584689 -1.58238925 -23.78368228 -0.03182043 0 0 Z " fill="#FFD700" transform="translate(1866.9301813840866,-0.26144933700561523)"/>
<path d="M0 0 C0.66 0 1.32 0 2 0 C3.58992761 3.17985522 3.13029723 6.61079792 3.11548513 10.1023156 C3.11598793 11.38204067 3.11598793 11.38204067 3.11650088 12.68761876 C3.11639306 15.58363549 3.10906319 18.47959082 3.10184383 21.37559795 C3.10027038 23.46693932 3.09913746 25.55828106 3.09840831 27.64962289 C3.0950964 33.44715534 3.08547977 39.24466347 3.07492426 45.04218665 C3.06457389 51.33061208 3.06002211 57.619042 3.05477101 63.90747339 C3.04475343 74.9460723 3.03105263 85.98466101 3.01491356 97.02325249 C2.99761277 108.87311355 2.98250793 120.7229744 2.97011948 132.57284164 C2.96933727 133.32020527 2.96855506 134.0675689 2.96774914 134.83757991 C2.96377314 138.64819936 2.95983734 142.45881885 2.95591915 146.26943837 C2.94786902 154.08391051 2.93951022 161.89838233 2.93104088 169.71285403 C2.93018778 170.5000311 2.92933469 171.28720817 2.92845574 172.09823909 C2.90869594 190.25476732 2.8857061 208.41129131 2.86263746 226.56781559 C2.82680024 254.78715898 2.79379593 283.00650357 2.76481819 311.22585487 C2.76394549 312.07557261 2.76307278 312.92529035 2.76217363 313.80075711 C2.75154305 324.16329598 2.74104662 334.52583497 2.73058967 344.88837401 C2.71462851 360.6966366 2.69838123 376.5048989 2.68211416 392.31316118 C2.68028781 394.08801766 2.67846215 395.86287414 2.67663717 397.63773063 C2.63359696 439.49041725 2.5880176 481.34310097 2.54142155 523.19578378 C2.5383293 525.97359885 2.53523973 528.75141392 2.53215054 531.52922899 C2.48457845 574.29268132 2.43568674 617.0561319 2.38452148 659.81958008 C2.3823011 661.67619835 2.38008077 663.53281662 2.37786049 665.38943489 C2.36788281 673.73165366 2.35789592 682.07387241 2.34790766 690.41609117 C2.34458456 693.19161373 2.34126193 695.9671363 2.33793936 698.74265886 C2.33351394 702.43944167 2.32908622 706.13622447 2.32465729 709.83300727 C2.27462796 751.6062934 2.22612196 793.37958018 2.18383121 835.15287495 C2.18294109 836.03139186 2.18205097 836.90990877 2.18113387 837.81504741 C2.16248222 856.23696671 2.14423352 874.65888639 2.12652593 893.08080663 C2.11822992 901.70854252 2.10982997 910.33627832 2.10136604 918.96401405 C2.10053424 919.81345891 2.09970243 920.66290376 2.09884542 921.53808937 C2.07201591 948.88030876 2.03830773 976.22251442 2.00081667 1003.56472112 C1.96304845 1031.11944059 1.93137327 1058.67415938 1.90827251 1086.22889528 C1.90507303 1090.04184226 1.90179912 1093.85478918 1.89847946 1097.66773605 C1.89783115 1098.41514154 1.89718284 1099.16254702 1.89651488 1099.93260116 C1.88608467 1111.73865738 1.86885662 1123.5446934 1.84874289 1135.35073668 C1.82907391 1146.97707192 1.81683664 1158.60339272 1.81184099 1170.22974407 C1.80895972 1176.44203931 1.80292342 1182.65428586 1.78786724 1188.86656453 C1.77420139 1194.53037561 1.77003615 1200.19411511 1.77310077 1205.85794112 C1.77259154 1207.8824232 1.7687722 1209.90690824 1.76101976 1211.93137554 C1.70242507 1228.00636125 2.27440709 1244.12766668 5 1260 C5.07341776 1261.98431897 5.14422713 1263.9688806 5.18676758 1265.95410156 C6.05684646 1298.40569231 14.64349431 1329.83761215 23 1361 C23.20127502 1361.75355774 23.40255005 1362.50711548 23.60992432 1363.2835083 C41.65610617 1430.63980615 79.03657857 1496.61682368 124.5546875 1549.15234375 C126.95658085 1551.9494368 129.26245557 1554.8064339 131.5625 1557.6875 C135.25618275 1562.23357108 139.22419486 1566.36029505 143.4453125 1570.41796875 C145.4997759 1572.49442182 147.39216502 1574.59338867 149.2890625 1576.80859375 C153.02407002 1581.11740402 157.06964285 1585.00287414 161.25 1588.875 C161.99652832 1589.57117432 162.74305664 1590.26734863 163.51220703 1590.98461914 C165.67071563 1592.99420882 167.8346403 1594.99779812 170 1597 C170.55333008 1597.51449707 171.10666016 1598.02899414 171.67675781 1598.55908203 C178.23338143 1604.65291048 184.99108992 1610.43434235 192 1616 C192.63260742 1616.50515137 193.26521484 1617.01030273 193.91699219 1617.53076172 C255.26202654 1666.39027731 330.66699973 1705.51827122 408 1721 C409.36656738 1721.28133789 409.36656738 1721.28133789 410.76074219 1721.56835938 C451.00244107 1729.72565948 492.45761298 1730.93678695 533.37309265 1731.54170227 C534.07700515 1731.55232933 534.78091765 1731.56295639 535.50616083 1731.57390548 C570.26875595 1732.09807565 605.02934357 1732.15096403 639.79525238 1732.1457255 C649.07039797 1732.14453164 658.34553878 1732.14928272 667.62068292 1732.1539966 C686.81196737 1732.16353188 706.0032491 1732.1664753 725.19453565 1732.16705366 C740.004469 1732.16751707 754.81440132 1732.16959515 769.62433434 1732.17275429 C773.91993592 1732.17365203 778.21553751 1732.17454185 782.51113909 1732.17542917 C784.11371187 1732.17576074 784.11371187 1732.17576074 785.74865985 1732.17609901 C815.67217833 1732.18222682 845.59569645 1732.18620213 875.51921558 1732.18575573 C876.64083135 1732.18574015 877.76244711 1732.18572457 878.91805124 1732.18570852 C884.60039239 1732.18562544 890.28273354 1732.1855264 895.9650747 1732.18542381 C897.09324866 1732.18540387 898.22142263 1732.18538392 899.38378369 1732.18536337 C901.66518901 1732.18532294 903.94659432 1732.18528114 906.22799963 1732.18523798 C941.83925968 1732.18462324 977.45051024 1732.19217927 1013.06176758 1732.20581055 C1053.2255155 1732.22117876 1093.38925721 1732.2297768 1133.55300826 1732.22884732 C1137.83446387 1732.22877271 1142.11591949 1732.22872399 1146.39737511 1732.22869301 C1147.45131607 1732.22868135 1148.50525703 1732.2286697 1149.5911356 1732.22865769 C1166.50446781 1732.228627 1183.41779172 1732.23499384 1200.33112147 1732.24362527 C1217.30577848 1732.25210948 1234.28042338 1732.25308518 1251.25508133 1732.24651595 C1261.32236852 1732.24282944 1271.38961884 1732.24462626 1281.45690209 1732.25445829 C1288.19193756 1732.26047845 1294.92694645 1732.25914039 1301.66198072 1732.25198779 C1305.4903584 1732.24812432 1309.31866496 1732.24727817 1313.14703748 1732.25544515 C1341.13718387 1732.31601582 1341.13718387 1732.31601582 1368.79408543 1728.43516124 C1371.74519049 1727.85299611 1374.66770175 1727.61356071 1377.66796875 1727.4296875 C1396.08478647 1726.1000555 1413.22389098 1722.74548797 1430.98309326 1717.58325195 C1433.0322275 1716.9906804 1435.0841243 1716.40881156 1437.13720703 1715.83007812 C1482.6954134 1702.97679342 1527.40283549 1687.86605985 1568 1663 C1568.92635254 1662.43410156 1569.85270508 1661.86820313 1570.80712891 1661.28515625 C1598.22484854 1644.80360558 1598.22484854 1644.80360558 1623.40625 1625.20703125 C1629.52566372 1620 1629.52566372 1620 1633 1620 C1633.00055616 1620.72695277 1633.00111233 1621.45390553 1633.00168534 1622.20288717 C1633.06229238 1701.32923799 1633.12535927 1780.4555867 1633.20132446 1859.58192444 C1633.20245809 1860.76345172 1633.20359171 1861.94497901 1633.20475969 1863.16231015 C1633.2294098 1888.83865281 1633.25450262 1914.51499502 1633.28005161 1940.19133681 C1633.29257772 1952.78258709 1633.30500598 1965.37383746 1633.31738281 1977.96508789 C1633.31861614 1979.21808408 1633.31984946 1980.47108027 1633.32112016 1981.76204604 C1633.36106651 2022.39215261 1633.39454868 2063.02226139 1633.42468691 2103.65237633 C1633.45568595 2145.39704339 1633.49319 2187.14169965 1633.53890612 2228.88635332 C1633.54535674 2234.77936917 1633.55173281 2240.6723851 1633.55806351 2246.56540108 C1633.55993596 2248.30518575 1633.55993596 2248.30518575 1633.56184625 2250.08011758 C1633.58176735 2268.767984 1633.59480927 2287.45584922 1633.60529328 2306.14372306 C1633.61597361 2324.9208068 1633.63386642 2343.69787261 1633.65916704 2362.47494244 C1633.6739873 2373.63752531 1633.68323195 2384.80008073 1633.68456683 2395.96267354 C1633.68600233 2403.41483619 1633.69463138 2410.86696789 1633.70915592 2418.31911647 C1633.71723002 2422.56807989 1633.7221325 2426.81698248 1633.71827881 2431.06595325 C1633.714834 2434.93194592 1633.72056119 2438.79781267 1633.73358065 2442.66378396 C1633.73665655 2444.05314769 1633.73640209 2445.44252385 1633.73239125 2446.8318852 C1633.71295023 2454.22964074 1634.12009037 2460.83919185 1636 2468 C1636.23950195 2471.07177734 1636.23950195 2471.07177734 1636.23828125 2473.8359375 C1636.25076904 2474.88531494 1636.26325684 2475.93469238 1636.27612305 2477.01586914 C1636.28812744 2478.12438232 1636.30013184 2479.23289551 1636.3125 2480.375 C1636.63570538 2493.37316917 1638.659044 2505.57475304 1641.27197266 2518.28027344 C1642.06161203 2522.31479572 1642.75283639 2526.35756884 1643.41796875 2530.4140625 C1653.21283812 2589.91959393 1678.37228711 2648.24160964 1709 2700 C1709.56187012 2700.95600098 1710.12374023 2701.91200195 1710.70263672 2702.89697266 C1726.87554289 2730.32019945 1745.50571792 2755.53247235 1767 2779 C1767.70624512 2779.7739209 1767.70624512 2779.7739209 1768.42675781 2780.56347656 C1776.20698178 2789.08419773 1783.98197826 2797.49809385 1792.74609375 2805.02734375 C1794.95928246 2806.96436333 1797.12143897 2808.95026805 1799.27685547 2810.95117188 C1805.32215034 2816.55628471 1811.53247884 2821.88367457 1818 2827 C1818.64710938 2827.51433594 1819.29421875 2828.02867187 1819.9609375 2828.55859375 C1830.71719973 2837.0887431 1841.67877087 2845.2362013 1853 2853 C1853.68964844 2853.47614746 1854.37929687 2853.95229492 1855.08984375 2854.44287109 C1875.22493249 2868.30214889 1896.36349796 2880.64483473 1918 2892 C1919.41200684 2892.7439502 1919.41200684 2892.7439502 1920.85253906 2893.50292969 C1952.98474936 2910.31968647 1986.64905477 2921.48252782 2021.4375 2931.3125 C2022.50259796 2931.61531891 2023.56769592 2931.91813782 2024.66506958 2932.23013306 C2041.8949198 2937.11253507 2059.19804954 2941.42654012 2077 2943.625 C2078.43122192 2943.80264893 2078.43122192 2943.80264893 2079.89135742 2943.98388672 C2099.83766908 2946.35549787 2119.74241358 2947.16378219 2139.8086853 2947.54759216 C2140.8920071 2947.56889505 2141.9753289 2947.59019794 2143.09147863 2947.61214637 C2166.83273467 2948.07093443 2190.5689437 2948.1382397 2214.31388903 2948.11606562 C2220.30352288 2948.11163575 2226.2931561 2948.11321616 2232.28279114 2948.1139679 C2242.59443044 2948.11448541 2252.90606328 2948.11142086 2263.21770096 2948.10573006 C2274.0002102 2948.09978335 2284.78271665 2948.09595306 2295.56522751 2948.09487724 C2296.2424868 2948.0948085 2296.91974608 2948.09473976 2297.61752838 2948.09466894 C2301.0587425 2948.09433048 2304.49995662 2948.09402914 2307.94117074 2948.09374207 C2332.14405046 2948.09165674 2356.34692684 2948.08496222 2380.54980469 2948.07543945 C2404.02278628 2948.06621471 2427.49576695 2948.05915102 2450.96875 2948.05493164 C2451.69575514 2948.05480011 2452.42276029 2948.05466859 2453.17179589 2948.05453308 C2460.47448426 2948.05321425 2467.77717263 2948.05193848 2475.07986102 2948.05069422 C2489.94853491 2948.04815985 2504.81720876 2948.0453386 2519.68588257 2948.04234314 C2520.36911313 2948.04220585 2521.0523437 2948.04206856 2521.75627821 2948.04192711 C2567.17085355 2948.03276859 2612.58542696 2948.01690745 2658 2948 C2654.87746098 2951.20333325 2652.38574636 2953.61823959 2648.26171875 2955.39453125 C2647.36783447 2955.78825928 2646.4739502 2956.1819873 2645.55297852 2956.58764648 C2644.60737061 2956.99184814 2643.6617627 2957.3960498 2642.6875 2957.8125 C2640.68906134 2958.69294929 2638.69166907 2959.57577737 2636.6953125 2960.4609375 C2635.71852539 2960.89245117 2634.74173828 2961.32396484 2633.73535156 2961.76855469 C2630.12545521 2963.39371688 2626.58855606 2965.13916495 2623.0625 2966.9375 C2604.67175537 2976.23537963 2585.9806033 2984.71582955 2567.09741211 2992.95581055 C2556.0314105 2997.78524444 2544.99435472 3002.67274193 2533.98361206 3007.62683105 C2516.04782964 3015.69256079 2498.0484798 3023.59605061 2479.91070557 3031.19775391 C2478.13856912 3031.94181912 2476.36874335 3032.69138114 2474.59912109 3033.44140625 C2457.08625912 3040.81750652 2439.14283613 3046.61031288 2421.06274414 3052.41629028 C2406.88230272 3056.97585653 2392.88533231 3061.76034466 2379.0625 3067.3125 C2336.54163943 3084.34069692 2292.11545419 3095.28212629 2247.81836605 3106.58136272 C2230.43668986 3111.01600214 2213.1017279 3115.57144339 2195.81665039 3120.37185669 C2177.80862127 3125.36501581 2159.84020079 3129.56523127 2141.4425354 3132.83679199 C2136.2983448 3133.75318983 2131.17092477 3134.73895515 2126.046875 3135.76171875 C2125.28836243 3135.91247864 2124.52984985 3136.06323853 2123.74835205 3136.21856689 C2120.20809781 3136.92243244 2116.66849384 3137.62921112 2113.12988281 3138.34130859 C2101.20148612 3140.70463192 2089.2048771 3142.66779785 2077.20806885 3144.64646912 C2075.61201619 3144.90971695 2074.01596721 3145.17298707 2072.41992188 3145.4362793 C2071.62553082 3145.56730262 2070.83113976 3145.69832594 2070.01267624 3145.83331966 C2064.94276716 3146.67187992 2059.87723289 3147.53280946 2054.81445312 3148.41333008 C2011.57018295 3155.92531732 1968.18827917 3161.18131703 1924.52108955 3165.48805904 C1922.50521866 3165.68698502 1920.4894118 3165.8865493 1918.47361755 3166.08625031 C1909.51515354 3166.97296045 1900.55502643 3167.84142574 1891.59375 3168.69921875 C1890.44063072 3168.81073839 1889.28751144 3168.92225803 1888.09944916 3169.03715706 C1873.73783741 3170.41935625 1859.42099052 3171.52911361 1845 3172 C1844.36285584 3172.02128 1843.72571168 3172.04255999 1843.06926012 3172.06448483 C1817.06366559 3172.92765848 1791.07368565 3173.15201079 1765.05534124 3173.1343255 C1760.01834918 3173.1317317 1754.98135862 3173.13415718 1749.94436646 3173.13571167 C1741.53598697 3173.13750776 1733.1276164 3173.1351896 1724.71923828 3173.13037109 C1715.0124647 3173.12487267 1705.30571195 3173.12674124 1695.59893882 3173.1321975 C1687.19474512 3173.13673064 1678.79055768 3173.13737999 1670.38636315 3173.13475883 C1665.39512357 3173.13320488 1660.40389382 3173.13297929 1655.41265488 3173.13629532 C1650.75174725 3173.13917898 1646.09086684 3173.1371893 1641.42996216 3173.13140106 C1639.72271902 3173.13007873 1638.01547358 3173.13045866 1636.30823135 3173.13266373 C1633.98018595 3173.13539434 1631.65222805 3173.13197139 1629.32418823 3173.12698364 C1627.37176366 3173.1264181 1627.37176366 3173.1264181 1625.37989616 3173.12584114 C1622.43381011 3173.01615173 1619.86441844 3172.63752262 1617 3172 C1614.17502359 3171.8072953 1611.36312468 3171.65211337 1608.53515625 3171.53515625 C1606.84341795 3171.4579065 1605.15168643 3171.38050825 1603.45996094 3171.30297852 C1602.5791687 3171.26391388 1601.69837646 3171.22484924 1600.79089355 3171.18460083 C1576.07480165 3170.07850844 1576.07480165 3170.07850844 1563.88916016 3168.81835938 C1557.47891891 3168.17696804 1551.06501194 3167.72400793 1544.63671875 3167.3125 C1543.68618622 3167.25098251 1542.73565369 3167.18946503 1541.75631714 3167.12608337 C1537.88032921 3166.87605288 1534.00441154 3166.62644471 1530.12731934 3166.39407349 C1519.17344427 3165.7373114 1508.39412303 3164.73379408 1497.54341125 3163.08261108 C1490.11963028 3161.96718665 1482.71956903 3161.34506502 1475.23397827 3160.83554077 C1461.87626633 3159.89788958 1449.01041286 3158.11650239 1435.88574219 3155.40087891 C1425.91835972 3153.34018112 1415.93285979 3151.62107061 1405.875 3150.0625 C1405.09371735 3149.94063324 1404.31243469 3149.81876648 1403.50747681 3149.69320679 C1394.83578801 3148.34125214 1386.15918625 3147.02265262 1377.48042297 3145.71696472 C1356.83167888 3142.60597755 1336.34365397 3139.37510307 1315.98486328 3134.68554688 C1308.2947475 3132.91932365 1300.62236509 3131.22517076 1292.82217407 3130.02461243 C1281.81439905 3128.31915132 1271.11491724 3125.67859105 1260.33309937 3122.90393066 C1254.62982591 3121.43664328 1248.92066648 3119.99271299 1243.2109375 3118.55078125 C1241.45123878 3118.10603958 1241.45123878 3118.10603958 1239.6559906 3117.65231323 C1228.28477637 3114.79303858 1216.86871768 3112.14017635 1205.44430542 3109.50326538 C1185.74532878 3104.947096 1166.3041667 3100.03330695 1147 3094 C1145.12632066 3093.41644425 1143.25262135 3092.83295264 1141.37890625 3092.24951172 C1131.59614555 3089.1998151 1121.81916552 3086.13217946 1112.04769897 3083.04649353 C1103.02033507 3080.19637949 1093.98772916 3077.36840676 1084.9296875 3074.6171875 C1084.06563293 3074.3541835 1083.20157837 3074.0911795 1082.31134033 3073.82020569 C1078.36744396 3072.62047563 1074.4219256 3071.4267919 1070.47265625 3070.24487305 C1048.36706255 3063.57213824 1026.95669982 3055.10864069 1005.625 3046.3125 C1000.85769098 3044.35582614 996.08895552 3042.40263878 991.3203125 3040.44921875 C990.16070007 3039.97359497 989.00108765 3039.49797119 987.80633545 3039.00793457 C979.08099404 3035.43218183 970.33215186 3031.91974048 961.56634521 3028.4446106 C917.1310089 3010.819447 873.45206309 2991.46511327 830.41943359 2970.65087891 C827.3534062 2969.17062207 824.28464048 2967.69629609 821.21458435 2966.22442627 C807.1304872 2959.4704997 793.11805291 2952.64080497 779.35351562 2945.25097656 C776.76162156 2943.87329345 774.15607891 2942.52429119 771.546875 2941.1796875 C760.79946929 2935.63747132 750.18723349 2929.91875058 739.6875 2923.91992188 C732.93091396 2920.06619926 726.10938183 2916.35447931 719.25 2912.6875 C707.68360573 2906.47714025 696.40197483 2899.82698823 685.14396667 2893.07695007 C681.17347146 2890.69726523 677.19152912 2888.33781177 673.203125 2885.98828125 C649.15277286 2871.8188799 625.4384788 2857.15980245 602 2842 C601.04561035 2841.38302246 600.0912207 2840.76604492 599.10791016 2840.13037109 C576.8667071 2825.73270257 554.7951144 2811.06510409 533 2796 C532.0929834 2795.37383789 531.1859668 2794.74767578 530.25146484 2794.10253906 C508.90018202 2779.34995821 488.06550484 2764.25190636 467.96484375 2747.83813477 C463.64385056 2744.31479107 459.27741355 2740.85829431 454.875 2737.4375 C449.52367645 2733.272669 444.36720661 2728.9203069 439.24511719 2724.47802734 C434.73263086 2720.58270837 430.10003385 2716.87334024 425.39282227 2713.21704102 C420.16125536 2709.14917591 415.02856649 2704.96672275 409.89990234 2700.77026367 C405.74565695 2697.38328916 401.52965161 2694.10122875 397.25 2690.875 C388.85649851 2684.45340354 381.26617719 2677.33952659 373.88818359 2669.79907227 C367.2280302 2663.00335496 360.27252528 2657.08658326 352.71142578 2651.32666016 C344.48116221 2644.94673829 336.73191359 2637.95216215 329.10571289 2630.87036133 C327.23527357 2629.13595032 325.35376754 2627.41908552 323.45654297 2625.71362305 C314.56827385 2617.70501598 306.1186066 2609.27074303 297.67114258 2600.80151367 C295.17838005 2598.30336032 292.68027525 2595.81063802 290.18164062 2593.31835938 C288.57259572 2591.70865409 286.96386082 2590.09863885 285.35546875 2588.48828125 C284.61991257 2587.7547493 283.88435638 2587.02121735 283.12651062 2586.26545715 C279.77567838 2582.89956824 276.52651423 2579.50201612 273.43261719 2575.89746094 C270.09803393 2572.03285691 266.49016659 2568.58942385 262.72265625 2565.15234375 C254.21205674 2557.27648902 245.98415847 2549.1367203 237.79663086 2540.92700195 C235.41179745 2538.53673893 233.02156895 2536.15196242 230.63085938 2533.76757812 C229.08561628 2532.22167518 227.54068291 2530.67546257 225.99609375 2529.12890625 C224.94439247 2528.08024132 224.94439247 2528.08024132 223.8714447 2527.01039124 C219.92812745 2523.04848225 216.15834386 2518.98797011 212.51411438 2514.74879456 C210.32922191 2512.22525465 208.03529885 2509.80751135 205.75 2507.375 C201.72503145 2503.04203386 197.99078884 2498.55369623 194.375 2493.875 C188.02207921 2485.67900246 181.21749108 2478.17673973 173.81787109 2470.90722656 C166.64399917 2463.84673257 160.22255986 2456.83646023 154.27490234 2448.70263672 C151.79765083 2445.39425832 149.17427988 2442.20246731 146.5625 2439 C146.01207031 2438.32420898 145.46164062 2437.64841797 144.89453125 2436.95214844 C140.94282922 2432.11737148 136.93101885 2427.33634443 132.88305664 2422.58203125 C129.30202125 2418.37351314 125.80388597 2414.1024502 122.31640625 2409.81640625 C119.7221229 2406.66214269 117.08371628 2403.54816349 114.4375 2400.4375 C109.85248347 2395.03924136 105.38633274 2389.56153887 101 2384 C100.19304687 2382.989375 99.38609375 2381.97875 98.5546875 2380.9375 C86.97664767 2366.38924517 76.12409002 2351.30477571 65.45898438 2336.07958984 C63.51619918 2333.31040573 61.56298547 2330.54866247 59.609375 2327.78710938 C58.09667504 2325.64743509 56.58714565 2323.50555164 55.078125 2321.36328125 C53.07595121 2318.52138413 51.06476108 2315.68622528 49.046875 2312.85546875 C37.93387064 2297.19575804 27.3810501 2281.1568539 16.76034546 2265.16163635 C13.45464565 2260.18417692 10.13973598 2255.21308696 6.8125 2250.25 C-2.32106376 2236.62075945 -11.29394593 2222.9066657 -20 2209 C-20.52335937 2208.16404297 -21.04671875 2207.32808594 -21.5859375 2206.46679688 C-25.42012147 2200.3292412 -29.21710171 2194.16927233 -33 2188 C-33.65371582 2186.93507324 -34.30743164 2185.87014648 -34.98095703 2184.77294922 C-45.26174326 2168.00258218 -55.26113709 2151.09253203 -65 2134 C-65.5563916 2133.02756348 -66.1127832 2132.05512695 -66.68603516 2131.05322266 C-75.38731696 2115.8421121 -83.77173846 2100.47169226 -92 2085 C-92.46631836 2084.12666016 -92.93263672 2083.25332031 -93.41308594 2082.35351562 C-110.37844658 2050.51697552 -126.50516392 2018.16834568 -141.04992676 1985.15338135 C-142.04782481 1982.89160303 -143.05025916 1980.63187815 -144.05371094 1978.37255859 C-167.78782692 1924.91461869 -190.93556065 1871.10225955 -211.18218994 1816.21447754 C-211.99675104 1814.00879759 -212.8150926 1811.80455237 -213.63427734 1809.60058594 C-227.67583938 1771.76880284 -239.64818997 1733.42049613 -250.58618164 1694.59057617 C-251.34103544 1691.91186954 -252.09616956 1689.23324215 -252.8515625 1686.5546875 C-253.03459616 1685.90533297 -253.21762981 1685.25597843 -253.40620995 1684.58694649 C-256.12066921 1674.96795268 -258.9989434 1665.4170168 -262.02511597 1655.89248657 C-266.64236072 1641.32621508 -269.73231558 1626.63332259 -272.6645813 1611.65539551 C-274.33021166 1603.15853073 -276.19616337 1594.75821841 -278.375 1586.375 C-281.60646202 1573.89209081 -284.45408353 1561.33660086 -287.25 1548.75 C-287.46468933 1547.78809753 -287.67937866 1546.82619507 -287.90057373 1545.83514404 C-290.99777639 1531.94157022 -294.08598042 1518.06119135 -295.96875 1503.94140625 C-296.99231282 1496.48145198 -298.70601987 1489.24477888 -300.5 1481.9375 C-303.91240073 1467.99520161 -306.04493217 1454.35083812 -307.3125 1440.0625 C-308.65946204 1425.66559681 -310.88942954 1411.5274863 -313.47509766 1397.29956055 C-314.62332895 1390.08172522 -315.14747781 1383.00937753 -315.13422108 1375.70360661 C-315.13657331 1374.80786184 -315.13892554 1373.91211707 -315.14134905 1372.98922852 C-315.14799119 1369.99606692 -315.14758228 1367.00294921 -315.14717102 1364.00978088 C-315.15047265 1361.83852334 -315.15419885 1359.6672664 -315.1583125 1357.49601024 C-315.16830698 1351.53510689 -315.17204519 1345.57421361 -315.17470181 1339.61330307 C-315.17861256 1333.1814067 -315.18819048 1326.74951825 -315.19691467 1320.31762695 C-315.21600673 1305.51945108 -315.22593302 1290.72127402 -315.23437535 1275.92308881 C-315.23858784 1268.60141726 -315.24380911 1261.27974652 -315.24905988 1253.95807565 C-315.26695006 1228.86832848 -315.28194229 1203.77858106 -315.28938007 1178.68882847 C-315.28985482 1177.1145763 -315.29033071 1175.54032413 -315.29080774 1173.96607196 C-315.29104411 1173.18542392 -315.29128049 1172.40477588 -315.29152403 1171.60047184 C-315.29272516 1167.64567588 -315.29394063 1163.69087993 -315.29516602 1159.73608398 C-315.29540617 1158.95125791 -315.29564632 1158.16643184 -315.29589374 1157.35782316 C-315.30377735 1131.94222528 -315.32718978 1106.52667421 -315.35972196 1081.11109674 C-315.39409625 1054.20696319 -315.41373837 1027.30285699 -315.41702431 1000.39870113 C-315.41744181 997.43934849 -315.41792136 994.47999586 -315.41844749 991.52064323 C-315.41857069 990.79202813 -315.41869388 990.06341303 -315.4188208 989.31271868 C-315.4211437 977.63497013 -315.43675279 965.95727633 -315.45728934 954.27954722 C-315.47764529 942.51687855 -315.48264804 930.75428056 -315.47351871 918.99159748 C-315.46899461 912.63093513 -315.47074945 906.27044886 -315.49028015 899.90981102 C-315.62992458 851.82360697 -315.62992458 851.82360697 -311.46988237 832.26761711 C-310.75551708 828.82014377 -310.24929727 825.35356318 -309.734375 821.87109375 C-309.48300781 820.23043945 -309.48300781 820.23043945 -309.2265625 818.55664062 C-309.06929688 817.52732422 -308.91203125 816.49800781 -308.75 815.4375 C-308.57726562 814.34244141 -308.40453125 813.24738281 -308.2265625 812.11914062 C-307.41323356 806.75181513 -306.93069245 801.67166632 -307.04589844 796.25024414 C-306.95453827 791.77116615 -306.05624663 787.39639586 -305.25 783 C-304.97820923 781.47354858 -304.97820923 781.47354858 -304.70092773 779.91625977 C-303.53562612 773.51390812 -302.13593057 767.2255318 -300.5559082 760.91381836 C-299.25645123 755.53245829 -298.34920266 750.13216419 -297.49804688 744.66333008 C-293.93330258 721.76419521 -288.70479633 699.22722421 -283.59368896 676.63256836 C-282.81011904 673.15801935 -282.03961724 669.68068628 -281.26953125 666.203125 C-278.56889883 654.11898584 -275.47309882 642.1605012 -272.24411011 630.20864868 C-268.16468518 615.07318681 -264.61680139 599.82229375 -261.1574707 584.53442383 C-255.33441012 558.97912777 -247.94704006 534.01197584 -239.5625 509.1875 C-239.12701631 507.8908658 -238.69186081 506.59412134 -238.25701904 505.29727173 C-230.41048546 481.90002221 -222.27295921 458.60970573 -213.93017578 435.38476562 C-212.09296936 430.26713641 -210.27718749 425.14209992 -208.46484375 420.015625 C-194.73611129 381.25394239 -179.90832077 342.91849118 -164 305 C-163.53717621 303.89386353 -163.53717621 303.89386353 -163.06500244 302.76538086 C-146.42859479 263.00646133 -128.7826773 223.26977898 -108.26708984 185.34277344 C-106.89608901 182.80787479 -105.53624193 180.26713196 -104.17578125 177.7265625 C-99.09566429 168.28595597 -93.85828577 158.96262875 -88.375 149.75 C-80.4199516 136.37555305 -72.92451883 122.85793429 -65.85571289 108.99536133 C-54.87205616 87.46145034 -42.62641086 67.29837104 -29.15698242 47.2331543 C-18.83408496 31.84371373 -9.01075549 16.19758162 0 0 Z " fill="#FFD700" transform="translate(315,923)"/>
</svg>
